<svg width="8" height="8" viewBox="0 0 8 8" fill="none" xmlns="http://www.w3.org/2000/svg">
<path fill-rule="evenodd" clip-rule="evenodd" d="M5.78492 5.86693C5.32964 5.95538 5.0594 6.16819 4.81384 6.48835C3.76322 7.85884 1.73924 8.04315 0.452594 6.90487C0.0741249 6.5701 0.0351013 6.1912 0.0101868 5.65051C-0.0347621 4.70024 0.0683751 3.82596 0.332827 2.93517C0.641046 1.89523 0.987116 0.920947 2.25664 0.703024C2.65911 0.634462 3.08833 -0.204999 3.13526 0.0470522C3.34903 1.20643 3.88888 -0.492512 4.03788 0.204675C4.19679 0.949589 4.9746 1.00001 5.38942 0.974462C6.6071 0.899773 6.96465 1.71811 7.37531 2.53457C7.49296 2.76828 8.0353 3.19105 7.21395 3.2516C7.18623 3.25351 7.16081 3.28704 7.13475 3.3059C7.63646 3.85739 7.13072 4.15329 6.97455 4.63858C6.72583 5.40992 6.24554 5.58477 5.78492 5.86693Z" fill="black"/>
</svg>
