<svg width="234" height="129" viewBox="0 0 234 129" fill="none" xmlns="http://www.w3.org/2000/svg">
<path fill-rule="evenodd" clip-rule="evenodd" d="M175.736 66.3012C176.616 65.7542 176.8 66.5973 177.275 66.6721C177.836 66.7618 178.459 66.4435 178.946 67.0553C180.077 68.472 181.871 68.8191 183.205 70.0193C184.515 71.1967 186.271 71.858 187.638 73.0493C188.344 73.6643 189 74.2927 189.962 74.3673C190.385 75.6745 191.712 76.0606 192.436 77.0972C193.197 78.1882 194.185 79.1018 195.051 80.115C195.137 80.2143 195.067 80.4622 195.07 80.7447C194.719 80.9633 194.367 81.0905 194.026 80.6332C193.346 79.7216 192.226 79.3966 191.54 78.4476C190.835 77.4719 189.865 76.7639 188.955 75.9815C185.923 73.3752 182.765 71.0018 179.41 68.8753C178.184 68.0977 176.793 67.5025 175.736 66.3012M158.83 97.0152C157.619 95.9707 157.677 94.2994 156.956 92.9795C157.558 93.3459 158.122 93.7663 158.408 94.3404C159.42 96.3692 161.096 97.7817 162.496 99.4483C162.984 100.029 163.72 100.451 164.156 100.952C164.671 101.54 164.983 102.671 165.669 102.938C166.888 103.411 167.296 104.706 168.331 105.306C169.333 105.886 170.192 106.704 171.119 107.398C172.885 108.718 174.361 110.537 176.622 111.084C177.127 111.206 177.479 111.98 177.99 112.142C178.627 112.345 178.773 112.735 179.318 113.511C177.449 112.684 175.953 112.245 174.686 111.412C172.697 110.105 170.746 108.714 168.82 107.288C165.487 104.822 162.587 101.947 159.889 98.7853C159.437 98.255 158.964 97.7894 158.294 97.5896C158.42 97.454 158.537 97.3282 158.83 97.0152M115.526 10.5688C117.606 10.0871 119.1 11.2434 120.754 11.2381C121.325 12.2226 122.468 11.3715 123.277 12.1899C123.79 12.7111 125.084 12.5514 125.991 12.5971C126.942 12.6463 127.391 13.5433 128.257 13.5475C129.919 13.5556 131.406 14.4072 132.942 14.8905C134.447 15.3658 136.008 15.7766 137.483 16.5172C139.641 17.6028 142.111 17.8624 144.302 18.9791C145.665 19.6729 147.111 20.1844 148.518 20.7802C149.777 21.3137 151.001 21.9839 152.302 22.35C153.665 22.7342 155.041 22.9399 155.978 24.2318C156.084 24.378 156.459 24.3319 156.708 24.331C157.23 24.329 157.733 24.3314 158.047 24.8944C158.339 25.4154 158.781 25.6168 159.354 25.522C159.911 25.4306 160.256 25.7565 160.686 26.1122C161.5 26.786 162.395 27.573 163.359 27.7804C165.387 28.2195 166.77 30.1189 168.867 30.2799C169.367 31.6288 170.871 31.3171 171.742 32.236C172.527 33.0616 174.038 33.0678 174.954 33.8143C176.825 35.3387 179.439 35.5196 180.954 37.6323C181.029 37.7362 181.261 37.7197 181.422 37.7511C183.295 38.1208 184.402 40.1328 186.355 40.3323C188.593 42.3229 191.41 43.3385 193.716 45.2178C194.698 45.0871 194.819 46.5081 195.817 46.4683C196.936 46.4235 197.181 47.7088 197.925 48.2628C198.064 48.3658 198.144 48.5583 198.286 48.6524C200.788 50.317 203.114 52.194 205.371 54.2425C208.061 56.685 210.695 59.1589 213.088 61.9204C213.363 62.239 213.298 62.5644 213.039 62.8344C212.647 62.9823 212.372 62.8568 212.134 62.5445C211.548 61.7726 210.76 61.2142 210.127 60.468C209.451 59.669 208.551 58.9371 207.74 58.183C205.934 56.503 204.214 54.6619 202.206 53.2999C200.504 52.1438 198.957 50.7627 197.209 49.6755C195.675 48.7199 194.041 47.8846 192.807 46.4574C190.68 46.5798 189.883 43.9801 187.914 43.783C187.169 42.4523 185.768 42.2989 184.621 41.6645C183.552 41.0728 182.677 40.0654 181.588 39.5454C178.457 38.0512 175.734 35.6919 172.366 34.7156C171.086 32.8758 168.804 32.7742 167.212 31.3674C165.898 30.206 164.046 29.8349 162.497 28.9401C160.119 27.565 157.698 26.2407 155.192 25.1639C153.943 24.6266 152.754 23.9345 151.415 23.5259C149.756 23.0175 148.111 22.2401 146.536 21.4641C143.987 20.207 141.379 19.1931 138.724 18.2471C135.916 17.2469 133.106 16.2485 130.305 15.2264C127.71 14.2804 125.035 13.6261 122.446 12.7205C120.222 11.9423 117.847 11.7602 115.526 10.5688M125.767 21.9451L125.241 22.4675C125.442 22.8671 125.872 22.8962 126.115 22.7644C127.413 22.0592 128.614 22.1446 129.782 23.0803C129.661 23.3255 129.54 23.5738 129.417 23.823C129.753 24.0943 130.055 24.1002 130.33 23.7876C130.585 23.4984 130.866 23.3709 131.257 23.6169C131.347 23.8841 131.454 24.2012 131.563 24.5233C131.988 24.4588 132.28 23.7206 132.829 24.2471C133.031 24.6467 132.382 24.6435 132.504 25.0083C132.642 25.0711 132.864 25.2381 132.924 25.1879C134.434 23.9418 135.717 25.3736 137.041 25.6721C138.392 25.9776 139.691 26.823 141.097 26.5082C141.811 26.3496 142.227 27.5732 143.068 26.6891C143.404 26.3363 144.388 26.673 145.063 26.695L145.963 27.7073C146.436 27.7208 147.104 26.5567 147.347 27.9153C147.531 28.9424 148.327 28.2589 148.795 28.5747C150.141 29.4809 151.853 29.6253 153.095 30.7925C153.279 30.9663 153.5 31.2841 153.668 31.2604C155.071 31.055 155.917 32.1691 157.016 32.8844C157.039 33.1816 157.072 33.6148 157.119 34.2525C158.318 34.0766 159.27 34.6715 160.292 35.2626C161.628 36.0349 163.058 36.9027 164.676 36.6139C165.36 36.4915 165.846 37.6611 166.623 36.7539C166.911 36.4166 167.507 37.0029 167.588 37.3683C167.801 38.3189 168.509 38.8265 169.024 39.5317C169.223 39.3513 169.41 39.1825 169.597 39.0128C170.337 40.2389 171.844 40.2238 172.771 41.1636C172.774 41.1667 172.89 41.0469 172.952 40.9846C173.016 40.9214 173.078 40.8591 173.15 40.7871C173.497 41.1512 173.843 41.5162 174.199 41.8896C174.639 41.0347 175.04 42.0016 175.336 41.8997C176.553 41.4842 176.713 43.23 177.737 43.1278C177.79 43.1225 177.927 43.4627 177.92 43.4675C177.391 43.82 177.652 44.0768 177.934 44.4659C178.371 45.067 178.53 44.1969 178.873 44.3468C179.461 44.6042 182.22 46.4561 182.535 47.0844C182.714 47.442 182.796 47.704 183.185 47.6695C184.342 47.5696 184.741 49.4187 186.102 48.8994C186.448 48.768 186.671 48.5612 186.938 48.3589C187.537 48.7674 186.892 49.5413 187.416 50.0468C187.982 50.5919 188.653 50.9012 189.324 51.1242C189.835 51.2926 190.171 51.2272 190.268 52.0133C190.373 52.8569 191.4 52.992 192.01 53.3696C192.494 53.6699 192.918 53.8747 193.514 54.8278C189.671 53.1997 187.094 50.3549 183.654 48.945C183.241 49.3325 183.653 49.6977 183.99 50.1308C184.325 50.5639 184.845 50.6432 185.253 50.8886C186.594 51.6983 188.102 52.2088 189.087 53.5827C191.521 54.4863 193.226 56.562 195.332 57.9996C197.557 59.5185 199.761 61.2608 201.347 63.5275C202.358 64.9736 203.446 66.3146 204.599 67.6055C205.397 68.4989 206.175 69.3866 207.181 70.1128C208.073 70.757 209.17 71.5697 209.347 72.9734C211.902 76.0538 213.263 79.9242 215.418 83.2759C216.251 84.5714 216.832 86.1752 217.086 87.7181C217.276 88.8679 217.941 89.7198 218.182 90.8261C218.513 92.3283 219.056 93.7138 219.1 95.3493C219.141 96.9064 219.553 98.4735 219.389 100.069C219.303 100.91 219.763 101.837 219.585 102.489C218.968 104.755 218.128 106.962 217.244 109.134C216.289 111.481 214.258 112.482 212.139 113.297C211.988 113.354 211.765 113.226 211.629 113.298C210.696 113.795 209.776 114.323 208.853 114.841C207.989 113.841 207.05 115.397 206.175 114.754C205.186 115.433 204.002 114.931 203.023 115.252C200.225 116.168 197.435 115.483 194.662 115.406C192.994 115.36 191.231 114.886 189.717 114.139C188.321 113.449 186.8 113.28 185.419 112.505C184.104 111.768 182.525 111.36 181.272 110.57C179.203 109.263 177.041 108.127 175.012 106.753C173.65 105.831 172.215 104.986 170.999 103.879C169.81 102.792 168.611 101.754 167.286 100.862C166.934 100.624 166.659 100.238 166.39 99.8848C164.877 97.9008 162.902 96.4092 161.403 94.3714C159.142 91.2936 156.378 86.9854 155.582 81.7878C155.323 80.1041 154.863 78.4308 154.77 76.7203C154.644 74.443 155.734 72.9631 157.686 72.0038C158.171 71.7664 158.722 71.5151 159.212 71.2175C159.486 71.0506 160.042 71.4336 160.529 71.0827C160.839 70.8586 161.1 71.3335 161.357 71.6052C161.724 71.2664 162.093 70.9258 162.507 70.5443C162.61 70.8914 162.706 71.2131 162.823 71.6059L166.14 71.7143C166.247 71.4354 166.366 71.1227 166.519 70.7187C167.626 71.4322 167.488 73.3994 169.13 73.5445C170.426 73.6602 171.257 75.3476 172.699 74.636C173.225 75.9868 173.225 75.9868 174.54 75.2921C175.506 75.6714 175.535 77.2039 176.637 77.4721C177.643 77.716 178.184 78.6844 179.074 79.1446C180.011 79.6295 180.844 80.3682 181.663 81.0734C182.889 82.1294 184.062 83.2521 185.258 84.3475C185.567 84.6299 185.785 84.9546 186.262 85.0878C187.129 85.3281 188.032 86.9405 188.128 87.9788C188.262 89.4273 188.468 90.8651 189.04 92.334C188.885 93.0032 188.135 93.2511 187.761 93.8017C184.7 94.0262 181.806 93.5789 179.187 91.7758C179.629 91.0526 179.994 90.9279 180.729 91.3891C181.226 91.7007 181.781 90.4104 182.595 91.1395C183.305 89.3326 184.23 87.7659 183.998 85.7936C182.328 83.7874 180.634 81.7653 178.084 80.7554C176.493 80.1266 174.092 79.4954 172.768 79.6571C172.319 79.7128 172.134 80.1318 171.685 80.2378C170.937 80.4133 171.084 82.0693 169.996 81.7383C168.912 81.4094 169.325 83.2188 168.354 82.8212C167.83 83.5498 166.9 83.6812 166.333 84.2908C165.586 85.0935 164.972 86.0372 164.301 86.9208C164.919 87.9922 163.022 88.9452 164.17 90.0419C162.868 90.8697 164.605 91.7998 164.114 92.5686C163.52 93.5019 165.917 92.5642 164.782 93.8989C164.517 94.2119 165.627 94.9255 165.824 95.753C165.943 96.2604 166.65 96.7277 167.268 97.1086C168.472 97.8505 169.258 99.1997 170.465 100.065C171.028 100.467 171.805 100.14 172.027 100.655C172.275 101.229 172.537 101.73 172.941 102.183C173.244 102.524 173.598 102.626 174.009 102.776C175.969 103.491 177.917 104.157 180.033 104.039C181.782 103.94 183.536 104.434 185.289 103.703C186.045 103.389 186.755 103.041 187.477 102.658C189.619 101.522 191.943 100.857 194.08 99.634C195.549 98.7956 196.443 97.654 197.202 96.2528C197.797 95.1537 198.397 94.0578 198.927 92.9143C199.195 92.3372 199.427 91.8443 199.437 91.2095C199.456 90.0232 199.384 88.8169 199.562 87.6549C199.907 85.389 199.193 83.2893 198.525 81.2887C197.996 79.7067 196.797 78.348 195.786 76.9803C193.758 74.2348 190.963 72.3837 188.351 70.3899C185.034 67.8595 181.522 65.5841 177.862 63.6173C176.373 62.8169 174.77 62.251 173.2 61.6279C173.064 61.5732 172.797 61.8921 172.47 62.1216C172.303 61.7835 172.11 61.3923 171.922 61.0103C169.247 60.9229 166.762 60.71 164.289 60.8121C162.865 60.8721 161.314 61.1651 160.098 61.8821C159.269 62.3706 158.465 61.882 157.719 62.4566C156.004 63.7784 154.175 64.9346 152.414 66.1926C151.378 66.9336 150.356 67.682 149.418 68.585C147.738 70.2054 146.563 72.2523 145.101 74.0517C144.614 74.6498 144.094 75.5715 144.416 76.4593C144.751 77.3828 143.422 78.1423 144.305 79.0265C143.419 79.4869 144.085 80.7498 143.255 81.2393C144.313 81.7954 144.313 81.7954 143.763 82.7342C144.103 83.5171 144.43 84.2705 144.713 84.9219C144.428 85.5347 143.765 85.0749 143.569 85.7498C144.554 87.592 144.371 89.8673 145.17 91.8672C145.577 91.9317 145.983 91.9962 146.35 92.0545C146.896 92.7748 146.108 92.9952 145.907 93.6148C147.193 95.8527 148.253 98.3294 149.805 100.587C151.575 103.163 153.762 105.292 155.707 107.671C156.644 108.817 157.961 109.487 158.923 110.647C159.759 111.656 160.045 113.199 161.445 113.671C161.218 114.697 162.228 114.381 162.596 114.756C163.094 115.262 163.876 115.326 164.003 116.355C164.109 117.213 165.245 117.136 165.699 117.782C166.219 117.638 165.819 116.922 166.281 116.741C167.253 116.672 167.371 117.796 168.101 118.084C167.871 118.34 167.703 118.529 167.485 118.774C168.743 119.562 169.787 120.755 171.398 120.746C171.565 120.745 171.819 120.71 171.888 120.807C173.121 122.537 175.119 122.724 176.819 123.416C178.23 123.991 179.51 125.081 181.147 124.974C182.11 125.991 183.649 125.052 184.601 126.109C185.83 125.767 186.777 126.903 187.998 126.799C189.196 126.697 190.413 126.847 191.621 126.887C192.399 126.912 193.175 126.935 193.952 126.963C195.796 127.029 197.567 126.27 199.46 126.523C200.153 126.616 201.071 126.08 201.244 125.014C201.657 125.281 201.505 125.581 201.538 125.874C205.146 125.577 208.361 123.91 211.67 122.595C213.772 121.76 215.786 120.661 217.71 119.473C220.811 117.558 223.595 115.207 225.376 111.748C226.143 110.258 226.889 108.771 227.597 107.257C228.324 105.701 228.543 103.966 229.358 102.551C229.914 101.583 229.362 100.557 229.931 99.7634C230.528 98.9357 230.416 98.2316 230.076 97.3069C229.921 96.8909 230.523 96.1447 230.419 95.4539C230.022 92.8099 230.065 90.0999 229.317 87.5068C228.968 86.2944 228.655 85.0621 228.292 83.8664C227.921 82.6403 227.369 81.4534 226.86 80.3846C225.886 78.3398 225.256 76.0259 223.637 74.364C223.194 73.9093 223.046 73.2814 222.839 72.7782C221.797 70.2448 220.245 68.0384 218.912 65.7045C217.28 62.8453 214.919 60.5682 212.757 58.1479C208.636 53.5341 203.736 49.9028 198.98 46.1043C197.46 44.8909 195.638 44.1058 193.98 43.0798C193.551 42.8145 193.217 42.3795 192.79 41.9746L190.171 41.889C189.148 39.929 187.411 38.7055 185.532 37.7457C184.003 36.9651 182.628 35.9403 181.161 35.0643C179.769 34.2329 178.358 33.434 176.928 32.6788C175.713 32.0381 174.785 30.7938 173.296 30.731C172.998 29.8812 172.318 31.2207 172.25 30.6215C172.172 29.9034 171.722 29.9279 171.38 29.6182C170.981 29.2585 170.51 29.0883 170.098 28.8869C168.27 27.9941 166.665 26.595 164.831 25.8617C162.928 25.1021 161.331 23.7384 159.435 23.1247C157.584 22.5255 156.162 20.7766 154.05 20.9498C153.995 20.9541 153.936 20.8215 153.871 20.7641C152.037 19.1344 149.547 19.059 147.534 17.736C146.38 16.9767 144.814 16.7949 143.458 16.2461C140.618 15.0981 137.763 13.9737 134.867 13.0007C132.567 12.2281 130.288 11.3858 127.942 10.7433C125.372 10.0383 122.741 9.53625 120.26 8.45925C119.663 8.19952 118.905 8.23004 118.239 8.30276C117.496 8.38397 117.107 7.70597 116.404 7.60162C115.186 7.42011 114.002 7.05078 112.744 6.95539C111.612 6.87017 110.448 6.55172 109.371 6.2452C107.877 5.8185 106.413 5.74655 104.916 5.64035C103.935 5.57109 103.105 4.85657 102.035 4.97034C101.151 5.06507 100.166 5.20071 99.4094 4.38507C99.3218 4.29076 99.0742 4.37111 98.9036 4.35448C95.6155 4.03598 92.3602 3.34069 89.0343 3.46917C88.389 3.49432 87.7055 3.62675 87.1598 2.91548C86.7798 2.41967 86.462 3.30673 85.9202 3.21164C84.4619 2.95395 82.9721 2.15253 81.5006 3.19384C80.8483 2.4198 79.9638 2.66525 79.158 2.62284C77.6053 2.54295 75.9517 2.14019 74.5248 2.5659C73.0653 3.0006 71.6994 2.83938 70.293 2.85674C68.7401 2.87634 67.1815 2.67265 65.6335 2.75271C64.493 2.81192 63.4004 3.24956 62.2039 3.20845C61.0635 3.16917 59.8278 2.58309 58.7387 3.48313C57.8514 2.39288 56.9836 3.88606 56.1003 3.50545C55.1287 3.08779 54.4454 4.22017 53.4431 4.00653C52.4408 3.79288 51.355 3.73629 50.3475 3.89733C47.8118 4.30489 45.2197 4.24129 42.7266 4.78592C41.4456 5.06565 40.1614 5.81259 39.2788 6.77365C38.362 6.85424 38.7436 6.12503 38.4076 5.71809C37.7903 5.76425 37.1684 5.60926 36.3625 5.92964C35.343 6.3345 34.2014 6.59567 33.0204 6.67365C31.6271 6.76379 30.0056 6.69573 28.9444 8.1042C26.0895 7.79483 23.4525 8.80609 20.8578 9.80466C17.9352 10.9292 15.0718 12.2426 12.2374 13.6022C8.91236 15.1959 6.17817 17.6803 3.69669 20.4624C2.6196 21.6694 2.66327 22.2888 3.53265 23.6348C4.94116 22.9592 6.30747 22.2642 7.4324 21.0468C8.01839 20.4137 8.92994 20.0244 9.76102 19.7541C13.3618 18.5804 16.877 17.1476 20.6477 16.502C22.2613 16.2261 23.9786 15.9757 25.5559 15.2494C26.1331 14.9828 26.8967 15.1676 27.7454 15.141C28.2417 14.6508 28.8457 14.0514 29.2783 13.6244C30.4037 13.5275 29.7832 14.5956 30.3669 14.7212C32.9013 13.6403 32.9013 13.6403 34.0848 14.1613C34.1985 13.8465 34.3142 13.5327 34.4329 13.2089C34.8126 13.4555 34.9711 14.0506 35.6364 13.6613C35.6974 13.4945 35.8102 13.1796 35.9353 12.8329C36.7295 13.4669 37.4393 13.1213 38.3135 12.9036C39.0058 12.7303 39.8959 13.7231 40.8649 13.2905C40.9302 13.0384 40.9954 12.7923 41.0918 12.4226C41.8653 12.9162 42.6165 13.2673 43.4019 12.3795C44.094 11.5951 45.183 11.8337 45.9029 11.3698C46.302 11.7306 46.1886 12.0012 46.1649 12.2577C45.8115 12.8692 44.9919 12.0325 44.5478 13.0772C46.5781 12.7898 48.445 13.5693 50.3846 12.7082C50.9518 12.4563 51.2922 12.3559 51.5592 11.7406C51.7315 11.3422 52.1432 10.7858 52.8238 11.1769C52.9173 11.8814 52.0243 11.8944 51.9301 12.7416C53.8702 12.5145 55.7581 13.1953 57.7074 12.5535C58.1729 12.3999 58.9281 13.2939 59.4167 12.8385C60.0597 12.2384 60.6947 12.4662 61.3442 12.4573C62.2067 12.4453 63.2962 12.8608 63.8806 12.4477C64.7473 11.8369 65.1906 12.8965 65.8371 12.5991C65.9084 12.5662 66.0214 12.5709 66.0916 12.6074C66.7789 12.9635 67.0256 12.0048 67.7117 12.0443C68.3579 12.0815 69.069 12.7288 69.4265 12.435C70.1395 11.8462 70.7455 12.7705 70.8486 12.6262C71.5126 11.6982 71.8121 12.8647 72.3144 12.8831C73.567 12.926 74.1238 12.283 74.4812 11.2434C75.8501 10.9475 76.2073 12.2526 77.0074 12.9149C77.1722 12.7715 77.3282 12.5394 77.5336 12.4718C78.2438 12.2387 78.6166 13.275 79.3619 13.0431C79.8156 12.9031 80.1496 12.698 80.7807 12.9909C81.6407 13.3909 82.8362 13.3676 83.075 11.7695C83.1268 11.4265 83.6113 11.4373 83.9333 11.6729C84.1455 12.0859 83.4945 12.0817 83.5303 12.1914C83.8679 12.6727 84.0714 12.9638 84.3807 13.405C85.1302 12.6095 86.0445 12.6454 86.9226 12.7505C87.2194 12.127 87.3314 11.4815 87.9153 11.179C88.3535 11.3089 88.1433 11.7361 88.2649 12.0326C88.8181 12.52 89.5757 12.0985 90.2614 12.3782C89.9126 13.2863 89.0794 12.3958 88.7537 13.0022C88.962 13.9065 89.9677 13.7766 90.3854 14.4113C91.2506 14.0144 92.0223 13.304 93.0617 13.4867C93.9412 13.6411 94.9636 13.1338 95.7174 14.1393C95.8384 13.8056 95.9531 13.4918 96.0668 13.1779C96.1285 13.1488 96.1912 13.1197 96.2528 13.0905C96.4433 13.9882 97.4817 14.2693 97.6271 15.2117C98.1668 14.8284 98.0077 13.8674 98.8263 13.7947C99.0211 14.2211 99.6504 14.1211 99.9925 14.481C100.605 15.1241 101.181 15.8052 101.803 16.5049C102.664 16.4235 103.633 16.9235 104.471 16.0956C104.774 16.2623 104.567 16.7038 104.747 16.988C104.864 17.1958 105 17.1892 105.112 16.9447C105.417 16.2803 105.707 15.6094 105.971 15.0121C106.388 15.0015 106.634 15.0327 106.678 15.1477C107.164 16.0741 105.696 16.1678 106.313 17.001C106.81 17.6223 107.134 17.0339 107.5 16.7031C107.865 16.9131 107.654 17.3584 107.863 17.6737C108.557 18.0693 109.39 17.8603 110.192 18.3136C110.895 18.7115 112.149 18.8741 113.093 18.0909C113.412 17.8279 114.033 17.8251 114.273 18.1335C115.162 19.283 115.938 18.1125 116.784 18.0467C116.953 18.4582 117.109 18.8372 117.262 19.21L118.395 19.247C118.613 20.8138 119.583 21.1892 120.929 20.9036L121.882 19.9569C122.585 20.2965 121.788 21.1668 122.53 21.6373C123.582 20.7079 124.668 21.1122 125.767 21.9451" fill="#F8D8D3"/>
</svg>
