<svg width="193" height="210" viewBox="0 0 193 210" fill="none" xmlns="http://www.w3.org/2000/svg">
<path fill-rule="evenodd" clip-rule="evenodd" d="M135.498 12.8219C135.087 13.2342 134.744 13.5758 134.31 14.0095C132.075 13.76 129.767 13.4024 127.445 13.2716C125.149 13.1435 122.838 13.2436 120.533 13.2436C118.714 13.2436 116.725 12.7806 115.121 13.3677C113.338 14.0215 111.392 13.3436 109.988 14.0989C108.357 14.9769 106.393 13.9775 105.064 15.4279C102.309 15.157 100.022 16.8569 97.4772 17.2572C94.615 17.7069 92.0478 18.8224 89.4205 19.8232C86.3848 20.98 83.2505 21.858 80.3403 23.3872C78.2667 24.476 76.0304 25.3046 73.8795 26.2253C70.0526 27.8639 66.7608 30.2363 63.4156 32.5594C61.5836 33.8297 59.993 35.4442 58.2891 36.8973C56.6785 38.2744 54.8785 39.4806 53.4788 41.0444C48.5298 46.5793 43.2778 51.9033 40.0674 58.7604C37.8604 60.7406 36.9718 63.58 35.8629 66.1179C34.7541 68.6558 33.1062 71.067 32.8166 73.9491C30.3881 77.9481 29.4261 82.5222 28.0971 86.8989C27.0496 90.3454 25.4978 93.7547 25.5392 97.4961C24.2195 98.5863 24.9721 100.305 24.2542 101.706C23.5257 103.128 23.0653 104.948 23.3202 106.783C23.5617 108.524 22.3127 110.087 22.5743 111.943C22.7971 113.535 22.5503 115.124 22.0072 116.763C21.4801 118.348 22.0712 120.225 21.2386 121.916C21.0371 122.324 21.7803 123.123 21.8577 123.771C21.9111 124.219 21.2773 124.925 21.4454 125.156C22.4288 126.502 21.5989 127.974 21.9031 129.092C21.4214 129.994 21.0465 130.693 20.5034 131.708C20.9397 131.941 21.5428 132.264 22.0859 132.553C22.0859 137.353 22.0806 141.805 22.1073 146.257C22.1086 146.429 22.4288 146.6 22.605 146.776C22.3701 147.033 22.1353 147.292 21.9004 147.551C22.4996 149.873 23.4096 152.108 23.4002 154.588C23.3949 155.943 23.7525 157.321 24.1021 158.649C24.8266 161.395 25.4097 164.193 25.9221 166.963C26.5012 170.088 28.1491 172.63 29.4408 175.351C30.7137 178.037 32.4684 180.398 35.2131 182.042C38.9999 184.309 42.7054 186.732 46.7044 188.591C48.6152 189.479 50.7127 190.136 52.6208 190.98C54.6197 191.862 56.7493 192.245 58.7481 192.833C60.5268 193.355 62.6137 193.546 64.5805 193.722C66.199 193.867 67.7789 193.752 69.4041 194.388C70.8572 194.955 72.7146 193.97 74.1703 195.191C74.2411 195.251 74.4065 195.199 74.5279 195.199C80.5031 195.157 86.4729 196.761 92.4014 195.818C96.4097 195.181 100.63 195.135 104.368 193.155C110.156 192.427 115.164 189.256 120.757 187.92C122.289 186.468 124.456 186.305 126.197 185.225C127.901 184.167 129.876 183.557 131.645 182.592C137.9 179.183 144.184 175.828 150.157 171.927C151.32 171.166 152.146 170.064 153.463 169.398C155.096 168.572 156.477 167.171 157.814 165.862C159.063 164.637 160.386 163.507 161.254 161.851C162.108 160.221 163.739 159.1 164.884 157.557C167.554 153.96 170.381 150.44 172.149 146.342C173.249 143.796 174.301 141.164 175.238 138.518C176.142 135.964 176.455 133.27 177.529 130.744C178.362 128.79 178.158 126.39 178.375 124.184C178.641 121.497 178.964 118.811 179.082 116.117C179.204 113.332 179.275 110.526 179.062 107.753C178.852 105.008 178.461 102.276 177.833 99.5617C177.476 98.0205 177.072 96.406 176.981 94.8248C176.841 92.3483 175.824 90.2107 174.902 88.0237C173.071 83.6778 170.413 79.8909 167.582 76.0974C164.455 71.9089 159.965 69.3497 156.631 65.4841C155.238 63.8709 153.242 62.6967 151.35 61.6239C149.91 60.8059 148.167 60.6391 146.611 59.8946C144.703 58.9819 142.547 58.5923 140.501 57.9638C140.291 57.8998 140.113 57.6729 139.908 57.6529C137.342 57.3914 134.774 57.1312 132.205 56.9257C131.24 56.8483 130.247 56.8016 129.3 56.947C128.504 57.0698 127.801 55.7608 127.011 56.855C125.733 55.8716 124.557 57.3327 123.206 56.9844C122.018 56.6788 120.76 57.0805 119.483 57.5288C118.023 58.0412 116.255 57.4754 114.717 58.3454C113.764 58.8845 112.682 59.1941 111.594 59.6331C111.293 59.3315 110.865 58.9018 110.42 58.4588C110.271 58.5709 109.98 58.6937 109.988 58.7964C110.069 59.968 109.697 60.7259 108.555 61.3183C106.543 62.3631 104.653 63.6441 102.597 64.8957C102.247 64.6955 101.762 64.4193 100.874 63.9123C100.733 64.474 100.571 65.1132 100.451 65.5922C100.279 65.5081 100.744 65.7336 101.321 66.0125C99.5561 67.7458 97.8067 69.4084 96.1215 71.1324C92.1332 75.2127 88.8 79.7842 86.0859 84.8013C84.6942 87.3752 83.1998 89.9078 82.0029 92.5711C80.5338 95.8376 79.0233 99.088 77.8838 102.511C77.0658 104.966 76.1692 107.384 75.4019 109.861C74.9256 111.4 75.2031 112.97 74.4559 114.558C73.5632 116.456 74.0943 118.971 73.5032 121.077C72.8133 123.536 72.9254 125.971 72.8147 128.435C72.7813 129.193 72.3623 129.934 72.1101 130.713C72.3343 130.965 72.5705 131.229 72.8093 131.498C72.6679 131.658 72.5158 131.829 72.3943 131.967C72.5478 132.955 72.824 133.913 72.824 134.872C72.8227 137.681 73.5579 140.334 74.2931 143.004C75.4513 147.201 78.3561 149.953 82.1643 151.45C86.6304 153.205 91.3526 154.031 96.1869 154.624C100.128 155.107 104.017 154.859 107.872 155.218C109.681 153.933 111.828 153.474 113.681 152.357C114.303 151.982 115.106 151.772 115.75 151.231C118.434 148.965 121.371 147.033 123.976 144.629C125.141 143.553 126.502 142.557 127.689 141.432C131.425 137.897 133.758 133.488 135.428 128.697C135.985 127.104 136.097 125.262 136.977 123.9C137.998 122.32 136.939 120.332 138.352 118.991C138.593 116.061 139.11 113.117 138.986 110.2C138.899 108.136 138.154 106.087 138.339 103.948C138.38 103.477 135.869 97.7216 135.311 97.2173C134.099 96.1204 132.785 95.1384 131.515 94.1083C130.255 94.7914 129.248 93.0902 127.723 93.9201C126.464 94.6046 124.556 94.7287 123.151 94.3364C121.563 93.8934 122.645 95.1637 122.112 95.4172C117.799 97.4654 115.046 101.508 111.163 104.126C110.974 104.253 110.847 104.475 111.042 104.253C110.594 105.812 110.575 107.146 109.91 107.945C107.966 110.287 107.533 113.305 106.042 115.831C105.714 116.389 105.698 117.151 105.607 117.826C105.41 119.311 106.072 120.907 104.907 122.284C104.667 122.567 104.779 123.247 104.889 123.705C105.204 124.999 105.603 126.272 106.036 127.787C110.783 124.556 112.526 119.191 115.958 115.207H118.61C118.089 116.357 117.615 117.4 116.834 119.118C117.946 118.643 118.485 118.543 118.845 118.233C119.668 117.522 120.405 116.708 121.219 115.894C122.298 116.616 122.878 117.829 123.886 118.673C124.828 119.459 125.134 121.008 126.017 122.839C126.052 125.553 123.764 128.258 123.067 131.459C121.754 132.325 120.273 132.837 120.046 134.908C119.911 136.136 118.688 137.243 118.134 138.117C116.575 138.811 115.315 138.187 114.01 138.967C112.182 140.061 110.227 138.111 108.221 138.428C105.391 136.555 102.022 135.834 99.1331 133.956C96.9608 132.542 95.6064 130.613 94.1467 128.714C93.1352 127.399 92.6535 125.689 91.7582 124.268C90.8722 122.865 90.8722 121.199 90.4746 119.723C89.8661 117.46 89.9275 114.834 90.4079 112.507C91.0897 109.22 91.6888 105.868 93.1966 102.764C95.078 98.8905 97.4611 95.3919 100.434 92.3109C103.217 89.4261 106.018 86.588 109.558 84.5171C111.852 83.1761 114.414 82.7531 116.76 81.6723C117.858 81.1652 118.872 82.4435 120.202 81.755C121.159 81.2613 122.588 81.5642 123.789 81.6843C125.034 81.811 126.706 81.727 127.401 82.4715C128.954 84.1354 131.661 83.1867 132.852 85.2576C135.171 85.2616 136.6 86.9776 138.142 88.2519C142.083 91.509 146.196 94.6794 148.066 99.7458C148.338 100.484 148.582 101.23 148.837 101.963C149.172 102.038 149.503 102.112 149.8 102.178C150.34 104.196 150.863 106.159 151.4 108.171C151.31 108.288 151.165 108.471 150.903 108.807C151.344 109.508 151.834 110.286 152.461 111.281C151.488 111.435 150.821 111.541 150.091 111.657C150.069 112.022 150.049 112.35 150.021 112.818H151.646C151.882 113.036 151.97 113.117 152.058 113.197C151.049 114.119 152.681 114.96 152.168 115.81C150.964 117.801 151.703 119.986 151.426 122.063C151.215 123.634 150.88 125.216 150.37 126.714C150.047 127.665 149.301 128.471 148.752 129.333C150.25 131.544 147.444 133.715 148.397 136.101C148.127 136.157 147.796 136.227 147.427 136.304C146.705 137.877 145.955 139.51 144.891 141.825V144.262C144.083 146.21 143.159 147.659 141.293 148.19V149.795C139.293 151.758 137.366 153.983 135.076 155.729C134.167 156.423 133.277 157.178 132.358 157.876C131.535 158.503 130.567 158.976 129.853 159.703C127.469 162.129 124.448 163.574 121.495 165.036C117.359 167.086 111.449 167.996 106.896 167.499C105.238 167.319 103.63 166.664 101.806 166.174C101.409 166.328 100.694 166.903 100.169 166.763C94.3895 165.228 88.4437 164.513 82.8288 162.081C78.6457 160.267 74.5907 158.275 70.9759 155.652C68.3406 153.741 65.9975 151.255 64.1642 148.373C62.0332 145.022 59.8783 141.724 58.7935 137.853C58.7041 137.537 58.3585 137.279 58.3078 136.967C58.0289 135.254 57.6326 133.537 57.5966 131.814C57.4992 127.085 57.347 122.34 57.6459 117.629C57.8194 114.917 58.4105 112.178 58.8695 109.469C59.3125 106.86 59.925 104.307 60.4187 101.719C60.9751 98.8025 62.0973 96.0951 63.0553 93.3343C63.8252 91.1194 64.5124 88.7749 65.6613 86.7921C67.6428 83.3695 68.9504 79.6414 71.0934 76.2602C73.1469 73.0191 75.063 69.6566 77.2286 66.4662C78.3308 64.8396 79.4209 63.157 80.79 61.7693C84.1472 58.3654 87.2655 54.6733 91.2738 51.9793C94.7418 49.6496 98.131 47.3145 102.201 45.8507C106.252 44.3949 110.244 43.3181 114.509 43.0566C115.268 43.0099 116.007 42.5989 116.793 42.3441C117.043 42.5629 117.309 42.7937 117.582 43.0313C117.738 42.9005 117.909 42.7591 118.094 42.6056C118.792 42.7631 119.568 42.7977 120.202 43.1153C121.082 43.557 121.545 42.0932 122.641 42.8671C123.378 43.3875 124.727 43.0139 125.798 43.094C126.708 43.1607 127.761 42.699 128.443 43.7305C129.487 42.188 130.435 44.0253 131.444 43.8158C132.776 43.5383 133.933 44.1588 135.151 44.523C136.238 44.8473 137.37 45.0248 138.481 45.2676C139.594 45.5105 140.832 45.5198 141.797 46.0362C145.868 48.2138 150.746 48.8877 153.993 52.513C156.457 52.441 157.985 54.241 159.732 55.4299C165.986 59.6891 171.23 65.1198 176.346 70.616C181.355 75.9973 185.539 82.0766 188.139 88.9898C189.518 92.6565 191.078 96.3032 191.593 100.329C191.923 102.911 192.675 105.497 192.89 108.112C193.106 110.762 192.937 113.444 192.937 116.113C192.937 118.053 192.955 119.994 192.933 121.934C192.91 123.905 193.068 125.817 191.824 127.681C191.109 128.753 191.285 130.42 191.059 131.819C192.454 132.586 189.821 133.95 191.406 134.645C190.374 136.654 189.342 138.655 188.303 140.677C187.956 140.362 187.721 140.071 187.418 139.904C187.241 139.807 186.954 139.907 186.588 139.923C186.341 140.818 187.385 140.903 187.722 141.773V144.736C187.398 145.06 186.97 145.489 186.451 146.009C186.621 146.231 186.804 146.468 187.012 146.737C185.475 148.282 185.283 150.533 184.21 152.356C182.995 154.42 181.911 156.576 180.211 158.066C179.03 157.751 178.091 157.501 177.152 157.252C177.093 157.426 177.034 157.601 176.976 157.776C177.412 157.966 177.848 158.156 178.545 158.459C177.886 158.912 177.312 159.304 176.739 159.696C176.826 159.86 176.913 160.024 177 160.187C177.572 160.059 178.146 159.932 178.94 159.754C178.994 160.19 179.072 160.805 179.153 161.449C178.629 161.642 178.208 161.795 177.595 162.019C177.747 162.736 177.903 163.48 178.135 164.582C177.294 165.062 176.162 165.711 174.861 166.455C174.323 167.667 173.686 169.101 173.051 170.531C173.159 170.596 173.269 170.662 173.378 170.724C170.731 173.372 168.268 176.241 165.391 178.608C161.938 181.448 158.221 184.002 154.459 186.432C149.124 189.879 143.661 193.127 138.204 196.378C137.557 196.764 136.607 196.64 135.632 196.776C134.422 198.978 131.767 199.275 129.713 200.481C127.796 201.608 125.629 202.313 123.482 203.244C123.245 202.766 123.006 202.285 122.763 201.797C121.565 204.718 118.512 204.761 116.106 205.938C115.784 205.757 115.319 205.497 114.677 205.136C114.486 205.755 114.361 206.168 114.234 206.579C114.148 206.666 114.032 206.842 113.98 206.824C112.484 206.333 111.221 207.284 109.933 207.64C103.771 209.356 97.4865 208.802 91.2365 209.087C86.4329 209.304 81.736 208.438 76.9858 208.191C75.1791 208.098 73.2123 207.922 71.499 207.436C69.7297 206.934 67.971 207.21 66.3231 206.773C64.2349 206.219 62.1466 205.728 60.0424 205.246C57.7513 204.723 55.479 204.031 53.252 203.222C51.0343 202.416 48.7433 201.812 46.5283 201.003C44.3186 200.197 42.193 199.162 39.9767 198.377C33.5078 196.087 28.0664 191.956 22.2007 188.585C19.5293 185.518 16.3349 182.984 13.7944 179.733C11.7915 177.172 10.0716 174.446 8.39564 171.727C6.58761 168.792 5.40139 165.46 4.43533 162.106C3.4199 158.586 2.48186 155.054 2.223 151.37C2.15228 150.368 1.73197 149.394 1.53048 148.394C1.32633 147.39 1.97215 146.207 0.864649 145.38C0.739222 145.287 0.808607 144.929 0.793929 144.696C0.55108 140.551 0.210825 136.409 0.0920691 132.261C-0.0293554 128.019 0.0480361 123.772 0.0934034 119.527C0.0987408 119.136 0.504379 118.751 0.724544 118.362C0.517722 118.13 0.281545 117.866 0 117.55C0.262864 116.936 0.816613 116.284 0.745893 115.707C0.305563 112.104 1.67059 108.655 1.54116 105.086C1.50913 104.184 1.14486 103.122 2.19498 102.456C1.06346 101.666 2.36978 100.956 2.29772 100.166C2.215 99.2788 2.12426 98.4008 2.72738 97.4428C3.50129 96.2112 2.4912 94.3938 3.70411 93.1329C3.72013 89.282 5.51881 85.8674 6.34209 82.222C6.97323 79.4292 8.02336 76.878 9.15354 74.2787C10.0849 72.1398 10.6013 69.8127 11.4352 67.5884C13.4127 62.3164 15.8452 57.2646 18.3351 52.2555C19.9923 48.9237 22.4795 46.0202 24.1528 42.6523C26.3478 41.6102 26.7828 39.111 28.3706 37.4858C29.9945 35.8258 31.4516 33.9204 33.1155 32.2378C34.8208 30.5139 36.4807 28.7379 38.2727 27.106C41.1976 24.4386 44.5334 22.2503 47.5277 19.7004C50.5526 17.1238 54.0499 15.4079 57.3297 13.349C60.424 11.4062 63.9787 10.0638 67.4907 8.96836C69.9632 8.19845 72.2716 7.00689 74.8388 6.45581C78.0279 5.77263 81.1209 4.65179 84.2779 3.80181C85.6016 3.44421 87.3175 3.71375 88.2582 2.95585C89.666 1.823 91.3259 2.97853 92.5962 1.89905C93.705 0.958346 95.505 2.36207 96.5391 0.878286C96.5792 0.82091 96.774 0.852934 96.8914 0.872949C99.8883 1.41069 102.709 -0.018387 105.689 0.115047C108.594 0.244477 111.592 -0.29326 114.401 0.243143C118.935 1.10913 123.658 1.15716 127.881 3.69774C131.061 5.61117 133.754 7.71008 135.177 11.1834C135.392 11.7064 135.403 12.3109 135.498 12.8219" fill="#F8D8D3"/>
</svg>
