<svg width="180" height="24" viewBox="0 0 180 24" fill="none" xmlns="http://www.w3.org/2000/svg">
<g clip-path="url(#clip0)">
<path d="M31.9436 9.24569H30.1203C29.9705 9.24569 29.8706 9.12082 29.8706 8.99594V7.62227C29.8706 7.49739 29.9705 7.37252 30.1203 7.37252H35.7399C35.8897 7.37252 35.9896 7.49739 35.9896 7.62227V8.99594C35.9896 9.12082 35.8897 9.24569 35.7399 9.24569H33.9166V16.0141C33.9166 16.1389 33.7918 16.2638 33.6669 16.2638H32.1434C32.0185 16.2638 31.8936 16.1389 31.8936 16.0141V9.24569H31.9436ZM38.1126 16.0141C38.1126 16.1389 38.2374 16.2638 38.3623 16.2638H39.8609C40.0107 16.2638 40.1106 16.1389 40.1106 16.0141V12.6673H43.7321V16.0141C43.7321 16.1389 43.832 16.2638 43.9819 16.2638H45.4804C45.6053 16.2638 45.7302 16.1389 45.7302 16.0141V7.62227C45.7302 7.49739 45.6053 7.37252 45.4804 7.37252H43.9819C43.832 7.37252 43.7321 7.49739 43.7321 7.62227V10.8191H40.1106V7.62227C40.1106 7.49739 40.0107 7.37252 39.8609 7.37252H38.3623C38.2374 7.37252 38.1126 7.49739 38.1126 7.62227V16.0141ZM48.8521 16.0141C48.8521 16.1389 48.952 16.2638 49.1019 16.2638H54.3468C54.4966 16.2638 54.5965 16.1389 54.5965 16.0141V14.6404C54.5965 14.5155 54.4966 14.3906 54.3468 14.3906H50.8252V12.6673H53.7224C53.8473 12.6673 53.9721 12.5674 53.9721 12.4176V11.0439C53.9721 10.919 53.8473 10.7941 53.7224 10.7941H50.8252V9.22072H54.3468C54.4966 9.22072 54.5965 9.09584 54.5965 8.97096V7.5973C54.5965 7.47242 54.4966 7.34754 54.3468 7.34754H49.1019C48.952 7.34754 48.8521 7.47242 48.8521 7.5973V16.0141ZM64.437 16.2388C64.4869 16.3138 64.5618 16.3887 64.6617 16.3887H64.7866C64.8865 16.3887 64.9615 16.3138 65.0114 16.2388L68.9825 7.6972C69.0575 7.52237 68.9576 7.37252 68.7578 7.37252H67.0594C66.9595 7.37252 66.8596 7.44744 66.8346 7.52237L64.7367 12.1428H64.6617L62.5638 7.52237C62.5388 7.44744 62.4389 7.37252 62.339 7.37252H60.6407C60.4408 7.37252 60.3409 7.54735 60.4159 7.6972L64.437 16.2388ZM71.0056 16.0141C71.0056 16.1389 71.1305 16.2638 71.2553 16.2638H72.7789C72.9037 16.2638 73.0286 16.1389 73.0286 16.0141V7.62227C73.0286 7.49739 72.9037 7.37252 72.7789 7.37252H71.2553C71.1305 7.37252 71.0056 7.49739 71.0056 7.62227V16.0141ZM77.1746 16.0141C77.1746 16.1389 77.2995 16.2638 77.4243 16.2638H78.9479C79.0727 16.2638 79.1976 16.1389 79.1976 16.0141V9.24569H81.0208C81.1707 9.24569 81.2706 9.12082 81.2706 8.99594V7.62227C81.2706 7.49739 81.1707 7.37252 81.0208 7.37252H75.4013C75.2515 7.37252 75.1515 7.49739 75.1515 7.62227V8.99594C75.1515 9.12082 75.2515 9.24569 75.4013 9.24569H77.2245V16.0141H77.1746ZM85.017 13.2168L85.966 11.1188L86.9401 13.2168H85.017ZM81.7202 15.9142C81.6452 16.089 81.7451 16.2388 81.9449 16.2388H83.3436C83.5933 16.2388 83.7432 16.089 83.7931 15.9391L84.2427 14.9151H87.6894L88.1389 15.9142C88.2638 16.1639 88.3637 16.2388 88.5885 16.2388H89.9871C90.1869 16.2388 90.2868 16.064 90.2119 15.9142L86.2408 7.37252C86.1908 7.29759 86.1159 7.22266 86.016 7.22266H85.8911C85.7912 7.22266 85.7163 7.29759 85.6663 7.37252L81.7202 15.9142ZM92.0102 15.9641C91.9852 16.1389 92.1101 16.2388 92.2599 16.2388H93.7585C93.8833 16.2388 93.9832 16.1389 94.0082 16.039L94.5577 12.1179H94.5827L96.7306 16.2388C96.7805 16.3138 96.8804 16.3887 96.9553 16.3887H97.1801C97.2551 16.3887 97.355 16.3138 97.4049 16.2388L99.5278 12.1179H99.5528L100.128 16.039C100.128 16.1389 100.253 16.2388 100.377 16.2388H101.876C102.026 16.2388 102.151 16.114 102.126 15.9641L100.702 7.44744C100.677 7.32257 100.577 7.24764 100.477 7.24764H100.278C100.203 7.24764 100.103 7.29759 100.053 7.37252L97.1052 12.8421H97.0802L94.0831 7.37252C94.0332 7.29759 93.9333 7.24764 93.8584 7.24764H93.6585C93.5586 7.24764 93.4338 7.34754 93.4338 7.44744L92.0102 15.9641ZM104.648 16.0141C104.648 16.1389 104.773 16.2638 104.898 16.2638H106.422C106.546 16.2638 106.671 16.1389 106.671 16.0141V7.62227C106.671 7.49739 106.546 7.37252 106.422 7.37252H104.898C104.773 7.37252 104.648 7.49739 104.648 7.62227V16.0141ZM109.743 16.0141C109.743 16.1389 109.868 16.2638 109.993 16.2638H111.492C111.641 16.2638 111.741 16.1389 111.741 16.0141V11.2937L116.761 16.3387C116.786 16.3637 116.886 16.4137 116.936 16.4137H117.136C117.261 16.4137 117.386 16.3138 117.386 16.1889V7.62227C117.386 7.49739 117.261 7.37252 117.136 7.37252H115.613C115.463 7.37252 115.363 7.49739 115.363 7.62227V12.1179L110.293 7.24764H109.968C109.843 7.24764 109.718 7.34754 109.718 7.47242L109.743 16.0141ZM124.379 15.04C124.279 15.2148 124.304 15.2648 124.454 15.3897C124.754 15.6894 125.653 16.3637 127.301 16.3637C129.174 16.3637 130.298 15.04 130.298 13.7413C130.298 12.0179 128.725 11.2437 127.726 10.8441C126.727 10.4445 126.352 10.0948 126.352 9.62033C126.352 9.27067 126.702 8.97096 127.151 8.97096C127.926 8.97096 128.85 9.67028 128.975 9.72023C129.099 9.82014 129.324 9.69526 129.399 9.5454L130.049 8.59633C130.099 8.49642 130.123 8.27164 129.974 8.19672C129.599 7.92198 128.575 7.24764 127.251 7.24764C125.303 7.24764 124.329 8.5214 124.329 9.77018C124.329 11.2937 125.703 12.1428 126.802 12.5674C127.676 12.9171 128.1 13.3167 128.1 13.8412C128.1 14.2907 127.726 14.5904 127.226 14.5904C126.377 14.5904 125.478 13.9161 125.428 13.8911C125.328 13.8162 125.103 13.7912 125.003 13.9661L124.379 15.04ZM132.846 16.0141C132.846 16.1389 132.971 16.2638 133.096 16.2638H134.594C134.744 16.2638 134.844 16.1389 134.844 16.0141V12.6673H138.465V16.0141C138.465 16.1389 138.565 16.2638 138.715 16.2638H140.214C140.339 16.2638 140.463 16.1389 140.463 16.0141V7.62227C140.463 7.49739 140.339 7.37252 140.214 7.37252H138.715C138.565 7.37252 138.465 7.49739 138.465 7.62227V10.8191H134.844V7.62227C134.844 7.49739 134.744 7.37252 134.594 7.37252H133.096C132.971 7.37252 132.846 7.49739 132.846 7.62227V16.0141ZM147.532 14.3407C146.158 14.3407 145.009 13.1918 145.009 11.8181C145.009 10.4195 146.158 9.27067 147.532 9.27067C148.93 9.27067 150.079 10.4195 150.079 11.8181C150.054 13.2168 148.93 14.3407 147.532 14.3407ZM147.532 7.24764C144.984 7.24764 142.986 9.29565 142.986 11.8181C142.986 14.3657 145.009 16.3637 147.532 16.3637C150.079 16.3637 152.102 14.3407 152.102 11.8181C152.102 9.29565 150.054 7.24764 147.532 7.24764ZM156.598 11.1938V9.24569H157.797C158.346 9.24569 158.796 9.64531 158.796 10.1947C158.796 10.7692 158.346 11.1938 157.797 11.1938H156.598ZM154.625 16.0141C154.625 16.1389 154.725 16.2638 154.874 16.2638H156.373C156.498 16.2638 156.623 16.1389 156.623 16.0141V13.042H157.946C159.495 13.042 160.769 11.7682 160.769 10.1947C160.769 8.67125 159.495 7.39749 157.921 7.39749H154.874C154.725 7.39749 154.625 7.52237 154.625 7.64725V16.0141ZM164.94 11.1938V9.24569H166.138C166.688 9.24569 167.137 9.64531 167.137 10.1947C167.137 10.7692 166.688 11.1938 166.138 11.1938H164.94ZM162.967 16.0141C162.967 16.1389 163.066 16.2638 163.216 16.2638H164.715C164.84 16.2638 164.965 16.1389 164.965 16.0141V13.042H166.288C167.837 13.042 169.111 11.7682 169.111 10.1947C169.111 8.67125 167.837 7.39749 166.263 7.39749H163.216C163.066 7.39749 162.967 7.52237 162.967 7.64725V16.0141ZM171.283 16.0141C171.283 16.1389 171.383 16.2638 171.533 16.2638H176.778C176.928 16.2638 177.028 16.1389 177.028 16.0141V14.6404C177.028 14.5155 176.928 14.3906 176.778 14.3906H173.257V12.6673H176.154C176.279 12.6673 176.403 12.5674 176.403 12.4176V11.0439C176.403 10.919 176.279 10.7941 176.154 10.7941H173.257V9.22072H176.778C176.928 9.22072 177.028 9.09584 177.028 8.97096V7.5973C177.028 7.47242 176.928 7.34754 176.778 7.34754H171.533C171.383 7.34754 171.283 7.47242 171.283 7.5973V16.0141Z" fill="#172327"/>
<path d="M180 8.27176C180 8.79625 179.575 9.22084 179.051 9.22084C178.526 9.22084 178.077 8.79625 178.077 8.27176C178.077 7.74727 178.501 7.34766 179.051 7.34766C179.575 7.34766 180 7.74727 180 8.27176ZM178.327 8.27176C178.327 8.69634 178.651 9.02103 179.051 9.02103C179.451 9.02103 179.775 8.69634 179.775 8.27176C179.775 7.84717 179.476 7.52249 179.051 7.52249C178.651 7.54746 178.327 7.87215 178.327 8.27176ZM178.901 8.77127H178.676V7.84717C178.751 7.84717 178.876 7.8222 179.026 7.8222C179.201 7.8222 179.276 7.84717 179.351 7.89712C179.401 7.94707 179.451 7.99703 179.451 8.09693C179.451 8.22181 179.376 8.29673 179.251 8.32171C179.351 8.34669 179.376 8.42161 179.426 8.54649C179.451 8.69635 179.476 8.7463 179.5 8.77127H179.276C179.251 8.7463 179.226 8.6464 179.201 8.54649C179.176 8.44659 179.126 8.39664 179.001 8.39664H178.901V8.77127ZM178.901 8.24678H179.001C179.126 8.24678 179.226 8.19683 179.226 8.1219C179.226 8.04698 179.151 7.97205 179.026 7.97205C178.976 7.97205 178.926 7.97205 178.901 7.97205V8.24678Z" fill="#172327"/>
<path d="M28.1474 0.828808C26.9985 0.00460905 21.1292 -1.04437 18.4069 2.32735C13.5366 8.42143 19.9804 16.039 19.9804 16.039L28.1474 0.828808Z" fill="#172327"/>
<path d="M15.9345 11.9431C14.4859 9.2457 12.5628 5.29953 12.338 4.87495C10.0402 0.828883 6.94325 0.404297 5.12002 0.404297H0C0 0.404297 11.1641 21.7585 11.314 22.0333C12.0133 23.1322 13.0123 23.6067 14.0863 23.6067C15.1603 23.6067 16.1343 23.2071 16.8336 22.0333L20.0055 16.0391C19.9806 16.0391 18.3821 16.5136 15.9345 11.9431Z" fill="#172327"/>
</g>
<defs>
<clipPath id="clip0">
<rect width="180" height="24" fill="white"/>
</clipPath>
</defs>
</svg>
