<svg width="168" height="28" viewBox="0 0 168 28" fill="none" xmlns="http://www.w3.org/2000/svg">
<g clip-path="url(#clip0)">
<path fill-rule="evenodd" clip-rule="evenodd" d="M26.3185 11.25H44.0457C43.9094 8.38637 45.6821 5.31818 46.4321 4.15909C46.2957 4.15909 46.2276 4.09091 46.0912 4.09091C45.0003 3.88636 43.6367 5.72727 43.6367 5.72727C43.6367 5.72727 43.2276 4.70455 42.1366 4.70455C41.1821 4.70455 40.6367 5.38636 40.6367 6C40.6367 6.54546 40.9094 7.02273 41.523 7.15909C41.523 7.15909 41.5912 6.54546 42.2048 6.54546C42.5458 6.54546 42.8185 6.88637 42.7503 7.29546C42.4094 9.20454 39.4775 9.13636 39.2048 7.02273C38.7957 8.59091 36.6139 8.65909 36.0003 7.29546C36.0003 7.29546 36.8866 7.43182 37.023 6.81818C37.1594 6.20455 36.6139 5.93182 36.3412 5.86364C36.3412 5.86364 36.8866 4.84091 37.4321 4.90909C37.9776 5.04545 37.9094 5.52273 37.7049 5.65909C37.7049 5.65909 38.523 6 39.0685 5.11364C39.3412 4.63636 39.0003 3.88636 38.3184 3.61363C37.773 3.40909 36.4775 3.27272 35.523 5.31818C35.523 5.31818 36.4775 3.13636 36.4094 2.25C36.3412 1.09091 35.1139 0 35.1139 0C35.1139 0 33.8867 1.09091 33.8185 2.25C33.8185 3.20454 34.773 5.31818 34.773 5.31818C33.7503 3.27272 32.523 3.40909 31.9776 3.61363C31.2958 3.88636 30.9548 4.63636 31.2275 5.11364C31.773 6 32.5912 5.59091 32.5912 5.59091C32.3866 5.52273 32.2503 4.97727 32.8639 4.84091C33.4094 4.70454 33.9548 5.72727 33.9548 5.72727C33.6821 5.79546 33.1367 6.06818 33.273 6.68182C33.4094 7.29546 34.2958 7.15909 34.2958 7.15909C33.6821 8.52273 31.5685 8.45455 31.0912 6.88637C30.8867 9 27.8867 9.13636 27.5457 7.22728C27.4776 6.81818 27.7503 6.47727 28.0912 6.47727C28.7048 6.47727 28.773 7.09091 28.773 7.09091C29.3866 6.95455 29.6593 6.47728 29.6593 5.93182C29.6593 5.31818 29.0458 4.63636 28.0912 4.63636C26.9321 4.63636 26.5912 5.65909 26.5912 5.65909C26.5912 5.65909 25.2276 3.88636 24.0685 4.02273C24.0003 4.02273 23.8639 4.09091 23.7275 4.09091C24.6139 5.52273 26.4548 8.38637 26.3185 11.25Z" fill="#172327"/>
<mask id="mask0" mask-type="alpha" maskUnits="userSpaceOnUse" x="0" y="0" width="168" height="28">
<path fill-rule="evenodd" clip-rule="evenodd" d="M0 27.1367H168V0.136719H0V27.1367Z" fill="white"/>
</mask>
<g mask="url(#mask0)">
<path fill-rule="evenodd" clip-rule="evenodd" d="M26.3182 12.3406H44.1136V11.8633H26.3182V12.3406ZM10.841 19.6361C10.841 20.0452 10.7046 20.3179 10.5 20.4542C10.3636 20.5224 10.0227 20.5906 9.61362 20.5906H3.54545V17.4542H9.61362C10.0227 17.4542 10.3636 17.5224 10.5 17.5906C10.7046 17.7269 10.841 17.9997 10.841 18.4087V19.6361ZM10.841 15.4087H0V15.8178C0.477273 15.8178 0.75 15.9543 0.818182 16.1588V26.386C0.75 26.5906 0.545455 26.727 0 26.727V27.1361H4.15909V26.727C3.75 26.727 3.54545 26.5906 3.47727 26.386V22.5679H10.7727C12.5455 22.5679 13.4318 21.8178 13.4318 20.3179V17.7269C13.4318 16.1588 12.5455 15.4087 10.841 15.4087ZM42.5455 15.4087H27.75V18.2043H28.1591C28.1591 17.7269 28.2955 17.5224 28.5 17.5224H33.75V26.386C33.6819 26.5906 33.4773 26.727 32.9318 26.727V27.0678H37.2955V26.6588C36.8864 26.6588 36.5454 26.5224 36.4773 26.3178V17.5224H41.7954C42 17.5224 42.1364 17.7952 42.1364 18.2043H42.5455V15.4087ZM26.5227 24.2042H26.1136C26.1136 24.6815 25.9773 24.8861 25.7727 24.8861H17.1818V22.0224H21.2046C21.4773 22.0224 21.75 22.0906 21.8864 22.1588C22.0909 22.2269 22.1591 22.4996 22.1591 22.8406H22.5682V19.2951H22.1591C22.1591 19.6361 22.0909 19.8406 21.8864 19.9769C21.75 20.0452 21.2046 20.1133 21.2046 20.1133H17.1818V17.4542H25.6363C25.8409 17.5224 25.9773 17.7269 25.9773 18.136H26.3864V15.477H13.6364V15.886C14.1137 15.886 14.3864 16.0224 14.4545 16.227V26.386C14.3864 26.5906 14.1818 26.727 13.6364 26.727V27.0678H26.4546V24.8861L26.5227 24.2042ZM56.1818 24.2042H55.7728C55.7728 24.6815 55.6364 24.8861 55.4318 24.8861H46.8409V22.0224H50.8637C51.2045 22.0224 51.4091 22.0906 51.5455 22.1588C51.6819 22.2269 51.8182 22.4996 51.8182 22.8406H52.2273V19.2951H51.8182C51.8182 19.6361 51.75 19.8406 51.5455 19.9769C51.4091 20.0452 50.8637 20.1133 50.8637 20.1133H46.8409V17.4542H55.2954C55.5 17.5224 55.6364 17.7269 55.6364 18.136H56.0455V15.477H43.3636V15.886C43.8409 15.886 44.1136 16.0224 44.1819 16.227V26.386C44.1136 26.5906 43.9091 26.727 43.3636 26.727V27.0678H56.1818V24.8861V24.2042ZM60.8864 20.5224V17.386H66.9546C67.3636 17.386 67.7046 17.4542 67.8409 17.5224C68.0454 17.6588 68.1819 17.9315 68.1819 18.3406V19.5679C68.1819 19.9769 68.0454 20.2497 67.8409 20.386C67.7046 20.4542 67.3636 20.5224 66.9546 20.5224H60.8864ZM71.3864 26.5906C71.25 26.5906 71.1137 26.4543 70.9773 26.3178L68.3864 22.636C70.0228 22.5679 70.841 21.8178 70.841 20.386V17.6588C70.841 16.1588 69.9546 15.4087 68.25 15.4087H57.4091V15.8178C57.8864 15.8178 58.1591 15.9543 58.2273 16.1588V26.386C58.1591 26.5906 57.9546 26.727 57.4091 26.727V27.0678H61.5682V26.6588C61.1591 26.6588 60.9545 26.5224 60.8864 26.3178V22.5679H65.25L67.3636 25.5679C67.5 25.7724 67.5682 25.9087 67.6364 25.977C67.7046 26.1133 67.7046 26.1815 67.7046 26.2497C67.7046 26.3178 67.6364 26.386 67.5682 26.4543C67.4319 26.5224 67.3636 26.5224 67.1591 26.5224V27.0678H71.7273V26.6588C71.6591 26.6588 71.5228 26.6588 71.3864 26.5906ZM157.091 20.5224V17.386H163.227C163.637 17.386 163.909 17.4542 164.114 17.5224C164.318 17.6588 164.454 17.9315 164.454 18.3406V19.6361C164.454 20.0452 164.318 20.3179 164.114 20.4542C163.977 20.5224 163.637 20.5906 163.227 20.5906L157.091 20.5224ZM167.591 26.6588C167.455 26.6588 167.318 26.5224 167.182 26.386L164.591 22.7042C166.228 22.636 167.045 21.8861 167.045 20.4542V17.7269C167.045 16.227 166.16 15.477 164.386 15.477H153.546V15.886C154.022 15.886 154.296 16.0224 154.364 16.227V26.4543C154.296 26.6588 154.091 26.7951 153.546 26.7951V27.2042H157.704V26.7951C157.296 26.7951 157.091 26.6588 157.023 26.4543V22.7042H161.386L163.5 25.7042C163.637 25.9087 163.705 26.0451 163.773 26.1133C163.841 26.2497 163.841 26.3178 163.841 26.386C163.841 26.4543 163.773 26.5224 163.705 26.5906C163.569 26.6588 163.5 26.6588 163.295 26.6588V27.0678H167.864V26.6588C167.932 26.6588 167.728 26.6588 167.591 26.6588ZM100.363 26.386V16.227C100.363 16.0906 100.432 15.9543 100.5 15.9543C100.637 15.886 100.977 15.886 101.114 15.886V15.477H96.9547V15.886C97.0228 15.886 97.3635 15.886 97.3635 16.227C97.3635 16.3633 97.3635 16.3633 97.2954 16.4997C97.2272 16.6361 97.1591 16.7724 97.0228 16.9088L92.7273 22.4996L88.0909 16.5678L88.0228 16.4997C87.9546 16.3633 87.9546 16.3633 87.9546 16.227C87.9546 15.886 88.2955 15.886 88.3636 15.886V15.477H84.2046V15.886C84.341 15.886 84.6818 15.886 84.8182 15.9543C84.8864 16.0224 84.9545 16.0906 84.9545 16.227V26.386C84.8864 26.5906 84.6818 26.727 84.2046 26.727V27.0678H87.8182V26.6588C87.4091 26.6588 87.2045 26.5224 87.1364 26.3178V19.7724C87.1364 19.4315 87.1364 19.0224 87.0682 18.5451C87.2045 18.9542 87.4773 19.2951 87.7501 19.7724L92.3182 25.7042H92.8637L97.2272 19.8406C97.3635 19.6361 97.636 19.2269 97.9095 18.6133C97.8414 19.1588 97.8414 19.5679 97.8414 19.8406V26.386C97.7732 26.5906 97.5679 26.727 97.1591 26.727V27.0678H101.114V26.6588C100.637 26.727 100.363 26.5906 100.363 26.386ZM107.523 15.8178V15.4087H103.5V15.8178C103.909 15.8178 104.113 15.9543 104.113 16.227V26.2497C104.113 26.5224 103.909 26.6588 103.5 26.6588V27.0678H107.523V26.6588C107.114 26.6588 106.909 26.5224 106.909 26.1815V16.2951C106.909 16.0224 107.114 15.8178 107.523 15.8178ZM121.909 24.2724C121.909 24.4769 121.841 24.6133 121.705 24.7497C121.569 24.8861 121.363 24.9542 121.091 24.9542H113.591V16.2951C113.591 16.0224 113.796 15.886 114.205 15.886V15.477H110.182V15.886C110.591 15.886 110.795 16.0224 110.795 16.2951V26.3178C110.795 26.5906 110.591 26.727 110.182 26.727V27.1361H122.386V24.2724H121.909ZM135.341 24.2724C135.341 24.4769 135.273 24.6133 135.136 24.7497C135 24.8861 134.796 24.9542 134.523 24.9542H127.023V16.2951C127.023 16.0224 127.227 15.886 127.636 15.886V15.477H123.614V15.886C124.023 15.886 124.228 16.0224 124.228 16.2951V26.3178C124.228 26.5906 124.023 26.727 123.614 26.727V27.1361H135.818V24.2724H135.341ZM142.091 22.4315L144.682 17.6588L147.204 22.4315H142.091ZM153 26.6588C152.863 26.5906 152.659 26.5224 152.523 26.386C152.386 26.3178 152.25 26.1815 152.182 25.977L146.113 15.3406H142.295V15.7497C142.432 15.7497 142.569 15.8178 142.637 15.886C142.773 15.9543 142.841 16.0906 142.841 16.227C142.841 16.3633 142.773 16.4997 142.705 16.7042C142.637 16.9088 142.5 17.0451 142.432 17.3179L137.387 26.1815C137.387 26.1815 137.319 26.2497 137.319 26.3178C137.182 26.5224 137.045 26.5906 136.841 26.6588V27.0678H140.591V26.6588C140.318 26.6588 140.114 26.5906 140.114 26.386C140.114 26.2497 140.182 26.0451 140.386 25.636L141 24.5451H148.364L148.704 25.1588L149.046 25.7042C149.182 25.977 149.25 26.1815 149.25 26.3178C149.25 26.386 149.182 26.4543 149.114 26.5224C149.046 26.5906 148.978 26.5906 148.909 26.5906V26.9997H153.069C153 27.1361 153 26.6588 153 26.6588Z" fill="#172327"/>
</g>
</g>
<defs>
<clipPath id="clip0">
<rect width="168" height="28" fill="white"/>
</clipPath>
</defs>
</svg>
