<svg width="126" height="26" viewBox="0 0 126 26" fill="none" xmlns="http://www.w3.org/2000/svg">
<g clip-path="url(#clip0)">
<path d="M41.4217 23.836C43.2257 21.4428 42.6895 17.9718 40.2769 16.2098C39.467 15.6234 38.5233 15.2912 37.5291 15.2381C38.635 14.2999 39.3637 12.9874 39.4755 11.5325C39.6011 9.86262 38.9225 8.15369 37.705 7.07581C35.9402 5.58185 33.3851 5.18812 31.3439 6.38049C31.6287 4.66873 31.0591 2.90112 29.769 1.6166C28.8195 0.647628 27.454 0.0947266 26.0215 0.0947266C24.0808 0.0947266 22.1177 1.23125 21.2521 2.99328C20.3863 1.23125 18.4233 0.0947266 16.4825 0.0947266C15.05 0.0947266 13.6845 0.650421 12.7351 1.6166C11.4478 2.89833 10.8781 4.66873 11.1602 6.38049C9.12167 5.18812 6.56383 5.58185 4.79901 7.07581C3.58152 8.15369 2.90295 9.86262 3.02861 11.5325C3.13752 12.9874 3.86914 14.2999 4.97494 15.2381C3.98083 15.2912 3.0342 15.6234 2.22719 16.2098C1.31127 16.8745 0.618742 17.8322 0.241764 18.8961C-0.269251 20.7001 0.0351241 22.4649 1.10463 23.8639C2.14061 25.2154 3.7351 25.9917 5.48037 25.9917H37.0153C38.7605 25.9917 40.3578 25.2154 41.3938 23.8639L41.4217 23.836Z" fill="white"/>
<path d="M8.52125 6.86914C7.47967 6.86914 6.46882 7.2517 5.60036 7.97495C4.67328 8.79588 4.13434 10.1586 4.23207 11.4431C4.30188 12.3758 4.72633 13.705 6.34036 14.7578L18.292 22.9927L12.5005 9.77331C11.7772 7.9526 10.2888 6.86914 8.52125 6.86914Z" fill="#172327"/>
<path d="M20.0957 3.36218C20.5229 4.1664 20.777 5.08232 20.6235 6.09038C20.6235 6.09038 18.3085 20.0107 18.2862 20.0162L12.4891 6.77733C11.9837 5.21357 12.464 3.58278 13.5893 2.46581C14.7259 1.30416 16.6052 0.983031 18.0879 1.6197C18.8782 1.9548 19.6266 2.58868 20.0957 3.36218Z" fill="#172327"/>
<path d="M33.9882 6.86914C35.0297 6.86914 36.0378 7.2517 36.9091 7.97495C37.8362 8.79588 38.375 10.1586 38.2774 11.4431C38.2075 12.3758 37.7831 13.705 36.1719 14.7578L24.2202 22.9927L30.0117 9.77331C30.7349 7.9526 32.2206 6.86914 33.9882 6.86914Z" fill="#172327"/>
<path d="M23.6284 5.55131C23.768 5.55131 23.9801 5.65742 24.0081 5.79146C23.2737 6.25779 22.0534 6.7716 22.2042 7.8439L22.3745 9.0139C23.0559 13.0965 24.2092 20.0105 24.2232 20.0133L30.0202 6.77439C30.5256 5.21063 30.0453 3.57985 28.92 2.46289C27.7835 1.30123 25.9041 0.980097 24.4214 1.61678C23.6311 1.95745 22.8828 2.58854 22.4136 3.36204C22.0645 4.02106 21.83 4.75268 21.8412 5.55131H23.6284Z" fill="#172327"/>
<path d="M37.2525 16.4336C39.1262 16.4336 40.6844 17.8102 41.1088 19.226C41.5192 20.6222 41.2791 22.0464 40.447 23.1354C39.64 24.1882 38.3918 24.7942 37.0235 24.7942H23.7119L34.6862 17.2238C35.5015 16.7072 36.3896 16.4336 37.2525 16.4336Z" fill="#172327"/>
<path d="M5.25705 16.4336C3.38333 16.4336 1.82515 17.8102 1.40071 19.226C0.990217 20.6222 1.23036 22.0464 2.06251 23.1354C2.86952 24.1882 4.11774 24.7942 5.48603 24.7942H18.7976L7.82329 17.2238C7.0107 16.7072 6.11991 16.4336 5.25705 16.4336Z" fill="#172327"/>
<path d="M80.9763 21.2384C76.7207 21.2384 73.2581 17.5664 73.2581 13.051C73.2581 8.53568 76.7207 4.86364 80.9763 4.86364C85.232 4.86364 88.6944 8.53568 88.6944 13.051C88.6944 17.5636 85.232 21.2384 80.9763 21.2384ZM114.028 5.18476H122.757C123.217 5.18476 123.653 4.9139 123.866 4.50341L125.666 0.384573H111.785C110.151 0.384573 108.823 1.71098 108.823 3.34455V24.729L107.443 21.5848C107.306 21.2775 106.938 20.9146 106.371 20.9146H97.2701V2.02653C97.2701 1.12178 96.5326 0.381782 95.6252 0.381782H92.0649V4.36379C93.2072 6.6843 93.4282 8.86244 93.4698 9.59685C91.9566 4.213 87.0833 0.102539 80.9763 0.102539C73.9422 0.102539 68.9214 5.40816 68.1479 11.1829H61.178C60.5301 11.1829 60.2453 11.6297 60.1532 11.8168L58.4916 15.6173H66.3021C65.4783 18.4516 62.8506 21.2412 58.8574 21.2412C54.4901 21.2412 51.0666 17.6446 51.0666 13.0538C51.0666 8.46308 54.5208 4.86643 58.9301 4.86643C60.7117 4.86643 62.7697 5.612 64.5847 6.91328C65.2717 7.38799 65.9139 6.81275 66.0256 6.6117L67.8407 3.44787C66.5004 2.26667 63.3645 0.102539 59.0418 0.102539C51.6306 0.102539 45.8252 5.77397 45.8252 13.0147C45.8252 20.1745 51.6391 25.9996 58.7849 25.9996C64.8166 25.9996 70.1417 21.6964 71.4486 15.7653C71.4486 15.7653 71.658 18.0663 70.5912 20.8113C73.0625 24.1119 76.8408 25.9996 80.9736 25.9996C86.2875 25.9996 90.1218 22.9446 92.0623 19.7808V22.738C92.0623 24.3799 93.3918 25.7175 95.0254 25.7175H112.374C113.284 25.7175 114.025 24.9804 114.025 24.0728V15.6229H121.45C121.91 15.6229 122.349 15.352 122.559 14.9415L124.209 11.1857H114.028V5.18476Z" fill="#172327"/>
</g>
<defs>
<clipPath id="clip0">
<rect width="125.667" height="26" fill="white"/>
</clipPath>
</defs>
</svg>
