<svg width="139" height="16" viewBox="0 0 139 16" fill="none" xmlns="http://www.w3.org/2000/svg">
<g clip-path="url(#clip0)">
<path d="M114.624 0H102.994L97.0337 15.6171H108.665L114.624 0Z" fill="#172327"/>
<path d="M112.509 7.28494L119.381 15.6171H132.79L125.101 7.376L138.461 0H124.812L112.509 7.28494Z" fill="#172327"/>
<path d="M99.2926 3.00504L100.446 0H70.6969L66.6118 10.7453C66.3715 11.4282 66.3234 12.2023 66.8521 12.7942C67.0443 12.9763 68.3419 14.4333 68.6303 14.7064C69.1109 15.2073 69.6876 15.6171 70.6489 15.6171H94.4864L95.6402 12.6576H78.9633C77.954 12.6576 77.4734 11.9291 77.7138 11.2006L78.4826 9.24278H96.9379L98.0917 6.23773H79.6362L80.8857 3.00504H99.2926Z" fill="#172327"/>
<path d="M65.1222 0H35.5171L29.5576 15.6171H40.8998L45.7059 3.00504H54.1645C55.0776 3.00504 55.4141 3.64247 55.2218 4.23438C55.0295 4.87181 54.7412 5.64583 54.5009 6.10114C54.2125 6.73857 53.5397 7.23941 52.5304 7.23941C51.5212 7.23941 44.6005 7.23941 44.6005 7.23941L51.4731 15.5715H64.4974L58.6341 9.33381C58.6341 9.33381 60.9891 9.33381 62.1425 9.33381C63.7765 9.33381 64.7378 8.51427 65.1703 7.46707C65.6509 6.28326 66.7563 3.41481 67.0927 2.45867C67.7175 0.956152 66.7563 0 65.1222 0Z" fill="#172327"/>
<path d="M33.45 0H1.15345L0 3.00504H11.15L6.34396 15.6171H17.3017L22.1077 3.00504H32.3446L33.45 0Z" fill="#172327"/>
</g>
<defs>
<clipPath id="clip0">
<rect width="138.667" height="16" fill="white"/>
</clipPath>
</defs>
</svg>
