<svg width="107" height="60" viewBox="0 0 107 60" fill="none" xmlns="http://www.w3.org/2000/svg">
<path d="M52.9566 0C65.4969 0.0230946 75.4277 10.2772 75.3353 22.4942C73.9265 52.0785 31.5477 51.9861 30.5547 22.1016C30.6932 9.88449 40.6701 0 52.9566 0ZM52.9334 42.3326C63.9496 42.3326 72.9334 33.3718 72.9334 22.3556C71.8249 -4.15704 34.0651 -4.13395 32.9565 22.3556C32.9565 33.3718 41.9173 42.3326 52.9334 42.3326Z" fill="#172327"/>
<path d="M96.1663 55.566C97.5056 53.0717 98.8219 50.6699 100.139 48.1756C100.255 47.9447 100.393 47.8754 100.624 47.8754C102.332 47.8754 104.019 47.8754 105.727 47.8754C105.866 47.8523 105.958 47.9216 105.935 48.0832C105.935 48.1526 105.935 48.2218 105.935 48.3142C105.935 52.0324 105.935 55.7276 105.935 59.4458C105.935 59.9077 105.981 59.8384 105.52 59.8384C104.573 59.8384 103.603 59.8384 102.656 59.8384C102.355 59.8384 102.355 59.8384 102.355 59.5382C102.355 56.813 102.355 54.0878 102.355 51.3396C102.217 51.4089 102.194 51.5244 102.125 51.6168C100.647 54.2726 99.1459 56.9285 97.6681 59.5844C97.5749 59.746 97.4595 59.8153 97.2749 59.8153C96.5364 59.8153 95.797 59.7923 95.0346 59.8153C94.8269 59.8153 94.7346 59.746 94.6423 59.5844C93.0952 56.8361 91.5706 54.0648 90.0002 51.3165C89.931 51.4782 89.954 51.5937 89.954 51.686C89.954 54.2957 89.954 56.8824 89.954 59.492C89.954 59.8154 89.954 59.8153 89.6307 59.8153C88.6838 59.8153 87.7369 59.8153 86.79 59.8153C86.3282 59.8153 86.3513 59.8847 86.3513 59.3997C86.3513 55.6352 86.3513 51.8477 86.3513 48.0832C86.3513 47.9216 86.4205 47.8523 86.5822 47.8754C88.2912 47.8754 89.9771 47.8754 91.6861 47.8754C91.9171 47.8754 92.0556 47.9447 92.148 48.1526C93.5106 50.6468 94.8038 53.0948 96.1663 55.566Z" fill="#172327"/>
<path d="M26.8364 47.7602C29.4923 47.8526 34.0419 47.0674 34.6887 50.7394C34.781 51.2244 34.8272 51.7094 34.8272 52.1944C34.8272 53.4185 34.8272 54.6425 34.8272 55.8665C34.781 59.3076 32.5408 60.0004 29.5385 60.0004C27.4138 60.0004 25.289 60.0005 23.1644 59.9773C22.4022 59.9773 21.6632 59.885 20.9242 59.6771C19.0073 59.1459 18.3838 57.5062 18.4069 55.6586C18.4069 54.4577 18.4069 53.2337 18.4069 52.0328C18.4069 51.5939 18.453 51.1321 18.5454 50.6933C19.0304 48.1298 21.5016 47.7602 23.6955 47.7602C24.6424 47.7602 25.6355 47.7602 26.8364 47.7602ZM26.6054 56.9058C27.3907 56.9058 28.1759 56.9058 28.9611 56.9058C29.9311 56.9058 30.7394 56.721 30.9472 55.6355C31.109 54.5732 31.0859 53.4646 30.9704 52.4023C30.878 51.5247 30.4161 51.0859 29.5616 50.9242C29.2845 50.878 29.0073 50.8549 28.7302 50.8549C27.1135 50.878 25.4969 50.8088 23.8802 50.878C22.7717 50.9473 22.2175 51.6632 22.1713 52.7256C22.1251 53.4877 22.1482 54.2267 22.1713 54.9889C22.1713 55.2891 22.2175 55.5894 22.3098 55.8665C22.5408 56.744 23.4184 56.9058 24.2036 56.9058C25.0119 56.9058 25.7971 56.9058 26.6054 56.9058Z" fill="#172327"/>
<path d="M75.9817 47.7605C77.8985 47.8298 79.8846 47.5757 81.7553 48.13C83.5567 48.6612 84.1803 50.2547 84.1803 51.9869C84.1803 53.257 84.1803 54.5042 84.1803 55.7743C84.1803 57.3678 83.6261 58.9614 82.0094 59.5388C80.9932 59.9314 79.9078 59.9776 78.8454 59.9776C76.8592 59.9776 74.8732 59.9776 72.887 59.9776C71.9863 59.9776 71.0625 59.9083 70.1849 59.6311C68.3373 59.0769 67.7368 57.4141 67.7599 55.6358C67.7599 54.4579 67.7599 53.2801 67.7599 52.1023C67.7599 51.4325 67.8292 50.7859 68.0371 50.1623C69.0763 47.0445 73.4181 47.8991 75.9817 47.7605ZM75.9354 56.906C76.7207 56.906 77.529 56.906 78.3142 56.906C79.2842 56.906 80.0694 56.7212 80.2773 55.6589C80.3004 55.5896 80.3235 55.5203 80.3235 55.4511C80.4159 54.4349 80.4389 53.4418 80.3235 52.4256C80.208 51.2016 79.1919 50.8321 78.1064 50.8552C76.4897 50.8782 74.8731 50.809 73.2565 50.8782C72.1249 50.9706 71.5475 51.6866 71.5244 52.7951C71.5244 53.3494 71.5013 53.9268 71.5013 54.481C71.5013 54.8737 71.5012 55.2893 71.5936 55.6819C71.8015 56.6981 72.6329 56.8829 73.5568 56.906C74.365 56.906 75.1503 56.906 75.9354 56.906Z" fill="#172327"/>
<path d="M58.2914 59.9769C55.4507 59.8846 50.9473 60.7159 50.3006 56.9284C50.2313 56.4896 50.1852 56.0739 50.1852 55.6351C50.1852 54.4342 50.1852 53.2563 50.1852 52.0554C50.162 47.4365 53.8572 47.7598 57.3445 47.7598C58.6609 47.7598 60.0003 47.7367 61.3167 47.806C62.9565 47.8984 65.035 48.1755 65.4507 50.0693C65.6124 50.7159 65.6124 51.3857 65.6354 52.0554C65.6354 52.2171 65.5893 52.2633 65.4277 52.2633C64.3422 52.2633 63.2336 52.2633 62.1482 52.2633C61.9865 52.2633 61.9634 52.1939 61.9634 52.0554C61.9172 51.2702 61.6401 50.9469 60.8549 50.8775C60.6932 50.8545 60.5085 50.8545 60.3468 50.8545C58.9611 50.8545 57.5754 50.8545 56.2129 50.8545C55.2198 50.8314 54.2036 51.1778 54.065 52.2863C53.9034 53.3949 53.9034 54.5035 54.065 55.612C54.2036 56.6974 55.1043 56.8822 56.0512 56.9053C57.4138 56.9053 58.7994 56.9053 60.1621 56.9053C60.5085 56.9053 60.8549 56.8822 61.2013 56.8129C61.871 56.6744 62.0789 56.1662 62.0789 55.5196C62.102 55.2425 62.102 55.2425 62.3791 55.2425C62.6794 55.2425 62.9796 55.2425 63.2798 55.2425C64.0189 55.2425 64.7579 55.2425 65.52 55.2425C65.7741 55.2425 65.7972 55.2425 65.7972 55.4965C65.7972 56.1662 65.8202 56.836 65.6817 57.5058C65.3583 59.3995 63.4415 59.9538 61.7556 59.9538C60.624 59.9999 59.4461 59.9769 58.2914 59.9769Z" fill="#172327"/>
<path d="M0 47.9445C0.0923788 47.8751 0.184758 47.8982 0.277136 47.8982C1.40877 47.8982 2.54042 47.8982 3.69515 47.8982C3.903 47.8982 4.01848 47.9675 4.11085 48.1523C5.63511 50.9929 7.09007 53.8798 8.63741 56.6974C8.72979 56.628 8.75288 56.5356 8.79907 56.4433C10.254 53.672 11.7321 50.8774 13.1871 48.1061C13.2563 47.9675 13.3487 47.8982 13.5104 47.8982C14.642 47.8982 15.7736 47.8982 16.9284 47.8982C17.0439 47.8982 17.1594 47.8751 17.2748 47.9445C17.2748 48.0599 17.2055 48.1523 17.1594 48.2446C15.127 52.0091 13.0947 55.7735 11.0854 59.5611C10.9469 59.7921 10.8083 59.8844 10.5543 59.8844C9.26095 59.8613 7.99076 59.8844 6.69746 59.8844C6.48961 59.8844 6.35104 59.8382 6.25866 59.6303C4.18014 55.7043 2.00923 51.8474 0 47.9445Z" fill="#172327"/>
<path d="M36.9977 53.88C36.9977 51.9862 36.9977 50.0693 36.9977 48.1756C36.9977 47.8984 36.9977 47.8984 37.298 47.8984C38.3373 47.8984 39.3765 47.8984 40.4158 47.8984C40.6698 47.8984 40.6698 47.8984 40.6698 48.1756C40.6698 48.2449 40.6698 48.3142 40.6698 48.4066C40.6698 51.0856 40.6698 53.7876 40.6698 56.4666C40.6698 56.7668 40.6698 56.7899 40.9932 56.7899C43.4873 56.7899 45.9816 56.7899 48.4758 56.7899C48.9608 56.7899 48.8915 56.7437 48.8915 57.2056C48.8915 57.9909 48.8915 58.7761 48.8915 59.5613C48.8915 59.8615 48.8915 59.8615 48.5913 59.8615C44.7806 59.8615 40.97 59.8615 37.1364 59.8615C37.0209 59.8615 36.9516 59.8154 36.9746 59.6999C36.9977 57.76 36.9977 55.8199 36.9977 53.88Z" fill="#172327"/>
<path d="M53.0023 5.08105C56.7667 12.3097 60.508 19.5383 64.2725 26.767C64.388 26.9748 64.388 27.1134 64.2495 27.3212C62.1709 30.8085 60.0924 34.319 58.037 37.8293C57.9215 38.014 57.806 38.0834 57.5981 38.0834C54.5266 38.0834 51.478 38.0834 48.4065 38.0834C48.1756 38.0834 48.0601 37.991 47.9677 37.8063C45.8892 34.2958 43.8337 30.8085 41.7321 27.2981C41.6166 27.0903 41.6166 26.9517 41.7321 26.7438C45.4965 19.5383 49.2148 12.2866 53.0023 5.08105ZM50.231 11.7785C50.1155 11.9171 50.0462 12.0787 50 12.2404C49.8383 12.4482 49.746 12.6792 49.6305 12.9332C49.5612 13.0256 49.492 13.1411 49.4688 13.2566C49.4226 13.2796 49.3996 13.3259 49.3996 13.3951C49.2378 13.6492 49.0762 13.9264 48.9607 14.2265C48.9146 14.2496 48.8915 14.2959 48.8915 14.342C48.8222 14.3883 48.7991 14.4575 48.776 14.5268C48.6374 14.7346 48.5219 14.9656 48.4296 15.1965C48.3372 15.2889 48.291 15.4044 48.2448 15.5429C48.1986 15.566 48.1756 15.6123 48.1756 15.6584C48.0832 15.7739 48.0138 15.8894 47.9677 16.0279C47.8753 16.1434 47.806 16.2589 47.7598 16.3974C47.7136 16.4205 47.6906 16.4668 47.6906 16.5129C47.6212 16.5822 47.5751 16.6746 47.5519 16.7669C47.4827 16.8363 47.4364 16.9287 47.4134 17.021C47.3672 17.0441 47.3672 17.0903 47.3672 17.1134C47.2748 17.2288 47.2056 17.3674 47.1593 17.506C47.0901 17.5753 47.0669 17.6677 47.0208 17.7601C46.9515 17.8524 46.9053 17.9217 46.8822 18.0372C46.7668 18.2219 46.6744 18.3836 46.6051 18.5915C46.4896 18.73 46.4203 18.8917 46.351 19.0533C46.1894 19.2843 46.0508 19.5383 45.9584 19.8155C45.8892 19.8847 45.8429 19.9771 45.8199 20.0695C45.7737 20.0926 45.7505 20.1388 45.7505 20.2081C45.5428 20.5545 45.358 20.924 45.1963 21.2935C45.127 21.3629 45.0809 21.4552 45.0578 21.5476C44.9654 21.64 44.9191 21.7554 44.8961 21.8709C44.8268 21.9633 44.7806 22.0556 44.7575 22.1711C44.6883 22.2404 44.6651 22.3097 44.642 22.379C44.5728 22.4714 44.5035 22.5638 44.4804 22.6792C44.4341 22.7485 44.388 22.7947 44.388 22.887C44.3187 22.9564 44.2725 23.0488 44.2494 23.1411C44.1801 23.1873 44.157 23.2565 44.134 23.3259C43.9954 23.5337 43.8799 23.7647 43.7875 23.9956C43.6951 24.1111 43.6259 24.2497 43.5797 24.3882C43.5104 24.4575 43.4873 24.5499 43.4411 24.6423C43.3719 24.7116 43.3256 24.8039 43.3025 24.9194C43.2564 24.9656 43.2101 25.0349 43.2101 25.1042C43.1177 25.1966 43.0716 25.3121 43.0254 25.4275C42.9792 25.4737 42.933 25.5429 42.933 25.6122C42.8406 25.7046 42.7945 25.8201 42.7714 25.9356C42.7252 25.9587 42.7021 26.0048 42.7021 26.0511C42.6328 26.1434 42.5635 26.2589 42.5405 26.3743C42.4942 26.4206 42.4481 26.4898 42.4481 26.5591C42.1709 26.8593 42.2402 27.1365 42.5173 27.4136C42.5173 27.4367 42.5405 27.4598 42.5405 27.4829C42.5866 27.5753 42.6328 27.6676 42.7021 27.76C42.7252 27.8755 42.7945 27.9679 42.8869 28.0602C42.9792 28.2681 43.0947 28.4529 43.2332 28.6376C43.2564 28.7069 43.2795 28.7762 43.3487 28.8455C43.3719 28.961 43.4411 29.0303 43.5104 29.1226C43.5566 29.2612 43.6259 29.3766 43.7182 29.4921C43.8799 29.7924 44.0416 30.0926 44.2494 30.3698C44.2725 30.439 44.2956 30.5083 44.3649 30.5776C44.5496 30.9471 44.7806 31.3167 45.0115 31.663C45.0346 31.7554 45.0809 31.8478 45.1501 31.9171C45.1733 31.9864 45.1963 32.0557 45.2656 32.1018C45.2887 32.1942 45.3349 32.2866 45.4042 32.3559C45.5196 32.6099 45.6582 32.8409 45.8429 33.0718C45.8892 33.1873 45.9353 33.2797 46.0277 33.3721C46.0277 33.4182 46.0508 33.4644 46.097 33.4876C46.097 33.5337 46.1201 33.5799 46.1663 33.603C46.2355 33.7877 46.351 33.9725 46.4665 34.1111C46.4896 34.2035 46.5358 34.2958 46.6051 34.3651C46.6513 34.5268 46.7437 34.6422 46.836 34.7808C46.836 34.827 46.8592 34.8732 46.9053 34.8963C47.0901 35.2659 47.2979 35.5891 47.5058 35.9356C47.5288 36.028 47.5751 36.1204 47.6674 36.1896C47.6674 36.2358 47.6906 36.282 47.7367 36.3051C47.7367 36.3513 47.7598 36.3975 47.8061 36.4205C47.8753 36.6053 47.9908 36.79 48.1062 36.9518C48.1524 37.0903 48.2448 37.2289 48.3372 37.3444C48.4065 37.506 48.5451 37.4368 48.6836 37.4368C50.0462 37.4368 51.4088 37.4368 52.7944 37.4136C52.9561 37.4368 52.933 37.3444 52.9099 37.252C52.933 36.5129 52.933 35.7739 52.9099 35.0117C52.933 34.9656 52.933 34.9194 52.8868 34.8732C52.8638 34.7808 52.8175 34.7116 52.7714 34.6422C52.7483 34.573 52.7252 34.5037 52.679 34.4575C52.6559 34.342 52.6097 34.2266 52.5404 34.1342C52.5173 34.0418 52.4711 33.9495 52.4019 33.8571C52.3788 33.7647 52.3556 33.6953 52.2864 33.6261C52.2633 33.5337 52.2401 33.4413 52.1709 33.3721C52.1478 33.2797 52.1248 33.1873 52.0554 33.118C52.0324 33.0257 52.0093 32.9333 51.94 32.8639C51.9169 32.7716 51.8938 32.6792 51.8245 32.6099C51.8014 32.4713 51.7321 32.3328 51.6397 32.2173C51.6166 32.1481 51.6166 32.0788 51.5474 32.0326C51.5243 31.9171 51.455 31.8016 51.3856 31.6862C51.3626 31.6399 51.3395 31.5938 51.3164 31.5707C51.2009 31.2704 51.0624 30.9702 50.8776 30.693C50.8545 30.6007 50.8314 30.5083 50.7621 30.439C50.739 30.3235 50.6697 30.208 50.6005 30.0926C50.5542 29.9771 50.5312 29.8848 50.4388 29.7924C50.4157 29.7 50.3926 29.6076 50.3233 29.5384C50.3002 29.446 50.2771 29.3536 50.2079 29.2843C50.1847 29.1919 50.1386 29.0765 50.0692 29.0071C50.0692 28.9148 50.0231 28.8455 49.9769 28.7762C49.9307 28.6607 49.9076 28.5452 49.8152 28.4529C49.746 28.1989 49.6305 27.9679 49.492 27.76C49.4688 27.6446 49.3996 27.5291 49.3302 27.4136C49.3072 27.3212 49.2841 27.252 49.2148 27.1827C49.1917 27.0903 49.1455 26.998 49.0762 26.9056C49.0531 26.8362 49.03 26.767 48.9838 26.7208C48.9607 26.6053 48.9146 26.513 48.8452 26.4206C48.8452 26.3512 48.7991 26.282 48.7529 26.2127C48.7067 26.0741 48.6374 25.9356 48.5681 25.8201C48.5451 25.7739 48.5219 25.7277 48.4988 25.7046C48.4527 25.5892 48.4296 25.4737 48.3372 25.3813C48.3372 25.312 48.291 25.2427 48.2448 25.1966C48.1986 25.0579 48.1524 24.9194 48.0601 24.8039C48.0601 24.7347 48.0601 24.6653 48.0601 24.6192C48.1293 24.5268 48.1524 24.4113 48.1756 24.2958C48.3372 23.8339 48.4757 23.372 48.5912 22.9102C48.6374 22.864 48.6374 22.8178 48.6374 22.7716C48.7298 22.5406 48.7991 22.3097 48.8452 22.0788C48.9146 21.9633 48.9607 21.8247 48.9607 21.6861C49.007 21.6169 49.03 21.5245 49.03 21.4321C49.0762 21.409 49.0762 21.3629 49.0762 21.2935C49.1224 21.2242 49.1455 21.1319 49.1455 21.0395C49.1686 20.9933 49.1917 20.9702 49.1917 20.9009C49.261 20.7624 49.3072 20.6007 49.3302 20.4621C49.3765 20.3697 49.4226 20.2542 49.4226 20.1388C49.515 19.9541 49.5612 19.7462 49.6074 19.5152C49.6767 19.3997 49.6997 19.2843 49.7229 19.1688C49.7691 19.0765 49.8152 18.961 49.8152 18.8686C49.9076 18.7069 49.9538 18.5222 49.9769 18.3605C50.0462 18.1988 50.1155 18.0372 50.1155 17.8524C50.1616 17.8062 50.1847 17.7369 50.1847 17.6677C50.2771 17.4367 50.3464 17.2058 50.3926 16.9748C50.4388 16.8593 50.485 16.7669 50.485 16.6515C50.5542 16.536 50.5774 16.3974 50.6005 16.2589C50.6697 16.1434 50.6929 16.0279 50.716 15.8894C50.7852 15.7508 50.8314 15.5892 50.8545 15.4275C50.9007 15.3351 50.9238 15.2658 50.9238 15.1734C51.0161 14.9425 51.0855 14.7115 51.1316 14.4806C51.1779 14.4344 51.2009 14.3651 51.2009 14.2959C51.2702 14.1573 51.3164 14.0187 51.3395 13.857C51.4319 13.6723 51.478 13.4875 51.5243 13.2796C51.6166 13.118 51.6397 12.9564 51.6859 12.7716C51.7321 12.7023 51.7552 12.61 51.7783 12.5176C51.94 12.0095 52.1248 11.5013 52.2401 10.9702C52.2864 10.9009 52.3325 10.8086 52.3095 10.7162C52.3556 10.67 52.3788 10.6007 52.3788 10.5314C52.4711 10.3236 52.5404 10.1157 52.5635 9.88476C52.679 9.67688 52.7252 9.42285 52.7944 9.19191C52.8638 8.98406 52.9561 8.7993 52.9561 8.59145C52.9561 7.99099 52.9561 7.41362 52.9561 6.81316C52.9792 6.69769 52.9792 6.58222 52.933 6.42055C52.7944 6.67459 52.6559 6.88245 52.5866 7.13649C52.5173 7.20578 52.4711 7.29815 52.448 7.39053C52.4019 7.41362 52.3788 7.45982 52.3788 7.50601C52.2864 7.62147 52.2171 7.73695 52.1709 7.87551C52.1016 7.9217 52.0785 7.99099 52.0554 8.08337C52.0324 8.08337 52.0324 8.10647 52.0324 8.12956C51.9169 8.26813 51.8476 8.42979 51.7783 8.59145C51.6859 8.68383 51.6628 8.77621 51.6166 8.89168C51.5704 8.96097 51.5243 9.00716 51.5243 9.09953C51.3626 9.33045 51.2471 9.58448 51.1316 9.8386C51.0624 9.90783 51.0161 10.0002 50.9931 10.1157C50.9469 10.1388 50.9469 10.1849 50.9469 10.2312C50.8545 10.3467 50.7852 10.5083 50.716 10.6468C50.6697 10.6931 50.6236 10.7623 50.6236 10.8316C50.5312 10.924 50.485 11.0395 50.4619 11.155C50.3926 11.2473 50.3234 11.3397 50.3002 11.4783C50.3002 11.5937 50.254 11.6631 50.231 11.7785ZM53.8337 34.9887C56.6743 32.6561 59.4226 30.185 62.2402 27.8062C62.2864 27.7601 62.3787 27.737 62.3557 27.6215C61.224 26.513 60.0924 25.4044 58.9145 24.2728C57.2056 27.737 55.5658 31.2473 53.903 34.7346C53.8568 34.827 53.7875 34.8963 53.8337 34.9887C53.8337 34.9656 53.8107 34.9656 53.7875 34.9887V35.0117C53.8107 35.0117 53.8107 35.0117 53.8337 34.9887ZM53.0485 34.804C53.164 34.7116 53.2102 34.5961 53.2564 34.4806C54.7575 31.3397 56.2587 28.1989 57.7599 25.0579C57.8522 24.8732 57.8752 24.6884 57.806 24.4806C56.1893 19.3305 54.7344 14.088 53.0485 8.96097C53.0485 17.5984 53.0485 26.1896 53.0485 34.804Z" fill="#172327"/>
<path d="M48.3604 26.7894C48.3835 26.8818 48.4065 26.9511 48.4758 27.0204C48.5912 27.3206 48.7299 27.6208 48.9146 27.921C48.9146 27.9673 48.9377 28.0134 48.9839 28.0596C49.007 28.1751 49.0763 28.2905 49.1456 28.3829C49.1686 28.4523 49.1917 28.5215 49.2379 28.5677C49.3534 28.891 49.5151 29.2143 49.6999 29.5146C49.6999 29.5839 49.746 29.6532 49.7922 29.6993C49.8384 29.861 49.9076 30.0227 50.0231 30.1612C50.0463 30.2536 50.0924 30.3459 50.1386 30.4153C50.1618 30.4846 50.1618 30.5538 50.231 30.6001C50.2541 30.6924 50.2772 30.7848 50.3465 30.8541C50.3695 30.9464 50.3926 31.0388 50.4619 31.1081C50.5081 31.2698 50.5774 31.4083 50.6698 31.5469C50.6929 31.6393 50.716 31.7086 50.7853 31.7778C50.7853 31.8471 50.8084 31.8933 50.8545 31.9395C50.8545 31.9857 50.8777 32.0319 50.9239 32.0781C50.9469 32.1936 51.0163 32.286 51.0624 32.4015C51.0855 32.4707 51.1086 32.54 51.1548 32.5862C51.1779 32.7247 51.2472 32.8633 51.3395 32.9787C51.4319 33.2329 51.5243 33.4637 51.6629 33.6716C51.6859 33.764 51.709 33.8564 51.7783 33.9256C51.8014 34.0411 51.8707 34.1566 51.94 34.249C51.9631 34.3414 51.9862 34.4106 52.0555 34.4799C52.0786 34.5954 52.1479 34.7109 52.2172 34.8033C52.2172 34.8725 52.3095 34.9419 52.2633 35.0343C52.1479 35.0111 52.1017 34.8956 51.9862 34.8495C51.7322 34.5723 51.4319 34.3414 51.1317 34.1104C51.0393 34.018 50.97 33.9256 50.8545 33.8795C50.8315 33.8332 50.7853 33.8102 50.7391 33.7871C50.6929 33.7179 50.6467 33.6716 50.5774 33.6485C50.5081 33.5561 50.4389 33.4869 50.3234 33.4407C50.3234 33.4176 50.3003 33.3945 50.2541 33.3945C49.8615 33.025 49.4689 32.6786 49.0531 32.3552C48.9839 32.2628 48.8915 32.1705 48.776 32.1243C48.7067 32.0319 48.6375 31.9626 48.522 31.9165C48.522 31.8933 48.4989 31.8702 48.4527 31.8702C48.1756 31.57 47.8522 31.316 47.529 31.0619L47.5058 31.0388C47.4366 30.9464 47.3442 30.8541 47.2287 30.8079C47.1595 30.7155 47.0671 30.6231 46.9516 30.5769C46.8823 30.4846 46.813 30.4153 46.6976 30.3691C46.6744 30.2998 46.6052 30.2767 46.559 30.2305C46.4897 30.1382 46.4204 30.0688 46.3049 30.0227C46.3049 29.9996 46.2818 29.9996 46.2587 29.9996C46.0047 29.7455 45.7276 29.4915 45.4273 29.2837C45.3581 29.1913 45.2657 29.0989 45.1502 29.0527C45.0809 28.9603 45.0116 28.891 44.8962 28.8448C44.873 28.7987 44.8268 28.7524 44.7576 28.7294C44.4112 28.3829 44.0185 28.0596 43.6259 27.7594C43.5798 27.6901 43.5798 27.6208 43.6259 27.5515C43.8107 27.3899 43.9724 27.2282 44.134 27.0435C44.2264 26.9741 44.3188 26.9049 44.388 26.7894C44.4804 26.7201 44.5497 26.6509 44.5959 26.5585C44.619 26.5585 44.6421 26.5354 44.6652 26.5123C44.7575 26.4661 44.8268 26.3968 44.873 26.3044C44.9885 26.2351 45.0809 26.1427 45.1502 26.0272L45.1733 26.0042C45.7968 25.4268 46.3973 24.8495 46.9747 24.249C47.1363 24.2721 47.1132 24.4337 47.1825 24.5031C47.2056 24.5723 47.2287 24.6416 47.2748 24.6878C47.298 24.7802 47.3211 24.8726 47.3903 24.9418C47.4135 25.0342 47.4366 25.1266 47.5058 25.1959C47.529 25.2882 47.552 25.3806 47.6213 25.4499C47.6444 25.5885 47.7137 25.7271 47.8061 25.8425C47.8292 25.9118 47.8292 25.9811 47.8985 26.0272C47.9216 26.1196 47.9446 26.212 48.0139 26.2814C48.0139 26.3506 48.0601 26.4199 48.1063 26.4661C48.2449 26.6046 48.2911 26.697 48.3604 26.7894Z" fill="#172327"/>
</svg>
