<svg width="1440" height="30" viewBox="0 0 1440 30" fill="none" xmlns="http://www.w3.org/2000/svg">
<path d="M1420.34 27.0026C1425.63 23.1443 1440 27.8581 1440 27.8581V0H0V27.8581L7.59117 29.6849C9.03715 30.4513 8.87918 27.1443 10.3251 27.9533C16.7219 30.7877 23.4987 28.2776 30.4081 28.8849C33.5812 28.8849 38.3583 29.7669 41.5314 29.7669C50.8499 30.9165 61.2529 27.4112 71.8567 27.9647C74.4273 27.837 77.1586 27.6239 79.8899 27.6239C87.6017 27.6239 95.3539 28.6954 103.066 28.6954C105.917 28.6954 105.757 29.5046 107.082 29.9304L111.5 28.6954H112.344H125.76C134.65 28.5251 143.526 28.3406 152.39 28.1419C154.132 28.328 155.863 28.6267 157.571 29.0362C165.162 28.2272 177.453 29.1638 185.486 28.6954C200.126 27.8537 214.801 27.9675 229.428 29.0362C229.428 29.0362 232.231 28.355 232.753 28.355H258.869C267.668 28.7031 276.479 28.5183 285.258 27.8015C293.533 28.0286 301.686 28.1419 309.72 28.1419L369.486 29.774H413.428C420.13 30.0229 426.84 29.7811 433.511 29.0503C435.158 29.3909 436.805 29.391 438.492 29.391C447.127 28.8375 455.562 29.5187 462.591 28.5394L478.216 29.0503H489.462C495.014 28.7247 500.579 28.7247 506.131 29.0503C517.659 28.8374 527.74 29.0504 537.942 28.3266C542.719 28.4518 547.498 28.2097 552.242 27.6026L553.527 28.4967C559.351 26.6233 568.388 29.476 576.703 28.4967L590.761 28.8801C599.276 28.5394 607.791 28.2413 616.306 27.9858L631.248 28.4967C638.197 28.2413 645.105 28.0285 652.014 27.773C657.334 28.5796 662.722 28.7652 668.08 28.3266C674.266 28.0711 680.491 27.858 686.677 27.6026C697.614 28.7921 708.636 28.7921 719.573 27.6026H737.125C741.463 27.3471 745.801 27.1343 750.139 26.8788C756.346 26.4927 762.573 26.735 768.736 27.6026C772.873 28.2412 778.055 27.049 783.035 27.6026C784.843 27.7303 786.65 27.9432 788.458 27.9432H801.431C808.97 26.2907 816.68 25.6895 824.366 26.155C838.685 27.6537 853.083 28.1372 867.464 27.6026C872.163 27.7729 876.823 28.1561 881.522 28.1561H889.314C890.585 27.5836 891.95 27.28 893.331 27.2621L910 28.1561L923.857 27.6451C929.526 28.464 935.247 28.8199 940.968 28.7096C948.72 28.2413 955.588 28.9651 964.786 28.7096C971.132 28.7096 981.575 28.369 987.922 28.7096C992.98 28.3691 998.039 28.3691 1003.1 28.3691H1003.1C1013.19 27.6453 1025.92 28.5393 1036.44 27.6451L1044.88 28.1561C1047.25 27.8156 1049.65 27.8156 1052.02 27.8156H1052.03C1057.33 28.7771 1062.72 29.0771 1068.09 28.7096C1072.75 28.0239 1077.45 27.7251 1082.15 27.8156C1085.04 27.9434 1087.93 28.1561 1090.83 28.1561C1099.01 26.9244 1107.31 26.9244 1115.49 28.1561C1125.49 29.5611 1135.21 27.3471 1144.49 28.4967C1147.62 28.1561 1150.71 28.1561 1153.81 28.1561C1161.16 27.6025 1168.79 28.4115 1176.34 27.6026C1179.51 27.7729 1182.69 28.1561 1185.86 28.1561C1192.61 27.6025 1199.4 28.4115 1205.54 27.6026C1210.24 26.9639 1215.5 26.1977 1219.84 25.4313C1221.62 25.4466 1223.38 25.8221 1225.02 26.5381C1228.15 27.049 1230.81 26.8362 1234.14 27.4323C1252.53 27.6594 1270.93 27.773 1289.33 27.773L1328.09 26.8788C1333.32 27.563 1338.61 27.6772 1343.87 27.2195C1358.82 25.2298 1373.91 25.823 1388.94 26.8781C1393.08 27.091 1399.22 25.2602 1402.76 25.6008L1404.08 27.389C1404.44 27.4096 1404.8 26.3459 1405.17 26.3253L1406.01 25.6008C1407.29 23.7274 1418.02 28.1096 1420.34 27.0026Z" fill="white"/>
</svg>
