<svg width="98" height="113" viewBox="0 0 98 113" fill="none" xmlns="http://www.w3.org/2000/svg">
<path fill-rule="evenodd" clip-rule="evenodd" d="M51.4367 21.7989C40.802 29.557 31.5223 38.6853 23.6431 49.2297C15.7482 59.7949 9.42446 71.1607 6.041 84.0101C14.7812 58.5783 31.0016 38.6561 51.4367 21.7989ZM13.1246 86.0195C14.3101 84.3355 14.9023 82.4403 15.1142 80.4097C15.8365 80.3132 15.7681 79.6321 15.9728 79.1847C17.1547 76.5987 18.1477 73.9264 19.5348 71.4339C19.662 71.205 19.9605 70.9391 19.5457 70.5281C17.9309 73.8123 16.1393 76.9459 15.1608 80.4534C14.2599 82.2363 13.5599 84.0915 13.1639 86.0602C12.4192 87.8012 11.9663 89.6223 11.6617 91.4842C12.1055 89.6515 13.2493 88.0058 13.1246 86.0195ZM12.3229 98.7699C15.205 81.8471 22.9086 67.094 33.1256 53.4645C32.7926 53.8457 32.4402 54.2117 32.1284 54.6094C22.4551 66.9452 15.3794 80.5596 11.8264 95.9247C10.7008 100.79 9.74295 105.698 8.291 110.485C8.0149 111.394 8.12207 112.569 6.42852 111.707C5.61657 111.293 4.40438 112.056 3.32904 112.145C2.45532 112.218 2.40628 112.492 2.28155 111.676C2.1877 111.063 1.48412 110.799 1.6252 110.108C1.12689 110.3 1.33154 111.148 0.78963 111.01C0.192621 110.858 0.123596 110.261 0.0939269 109.662C-0.160377 104.601 0.113908 99.5712 0.769044 94.5485C2.12352 84.1636 5.23632 74.33 9.98939 65.0251C16.2101 52.8477 24.3564 42.0871 33.9563 32.384C45.3704 20.8482 58.6844 12.1449 73.3989 5.50253C78.706 3.1065 84.1015 0.944792 89.942 0.206011C90.5414 0.130129 91.1433 0.0542478 91.7464 0.0202529C92.2326 -0.00706443 92.8768 -0.123618 92.4584 0.760249C92.3167 1.06074 92.3985 1.42679 92.7387 1.30356C94.1683 0.787566 94.9058 2.01017 95.9636 2.44482C97.2042 2.95474 97.4264 4.15609 97.7092 5.07456C98.0489 6.17697 97.2787 6.96006 96.0066 7.40564C84.0004 11.6143 73.385 18.3465 63.2697 25.911C48.5062 36.9527 35.9375 50.0923 26.0299 65.7129C20.4734 74.4733 16.3676 83.8777 13.6877 93.9074C13.253 95.5337 12.7789 97.1491 12.3229 98.7699Z" fill="#F8D8D3"/>
<path fill-rule="evenodd" clip-rule="evenodd" d="M33.7425 93.6292C32.7849 95.0538 32.3615 96.6837 32.3064 98.4094C32.7849 96.816 33.264 95.2226 33.7425 93.6292ZM35.5262 100.041C36.1864 97.9215 37.3839 95.9862 37.5171 93.7299C36.6322 95.773 35.7951 97.8286 35.5262 100.041ZM35.5032 104.952C38.1997 98.7557 40.3778 92.3474 43.4971 86.3235C39.5038 91.9798 37.5928 98.5048 35.5032 104.952ZM40.9714 70.8646C33.0102 78.9902 27.9739 91.8727 27.8412 99.5762C30.3815 88.9721 30.7037 88.2716 40.9714 70.8646ZM69.3123 57.8845C69.858 57.3935 70.2845 57.0103 71.0785 56.2965C70.6745 57.7695 69.9992 58.5174 69.3238 59.2599C66.1536 62.7407 62.7975 66.0389 59.3566 69.2574C53.4184 74.8112 47.9889 80.78 43.9163 87.8542C41.3269 92.3523 39.5474 97.1948 37.6486 101.99C37.1101 103.35 36.608 104.794 35.7279 105.925C35.2397 106.552 34.115 106.765 33.6468 107.622C32.9708 107.251 33.654 106.62 33.2161 106.28C32.1919 106.805 31.3161 108.14 29.9442 106.784C29.7558 106.598 29.5432 107.175 29.3518 107.401C28.9157 107.914 28.3972 108.124 27.7497 107.886C27.095 107.645 26.6958 107.267 26.6001 106.479C26.4669 105.387 27.0199 104.402 27.0144 103.146C26.1277 103.66 26.373 104.474 26.0817 105.029C25.8776 105.417 25.9799 106.134 25.2743 106.086C24.6244 106.043 24.3724 105.506 24.2767 104.946C24.1949 104.467 24.1513 103.971 24.1713 103.486C24.7019 90.708 28.8957 79.2716 37.0017 69.267C41.1773 64.1126 45.6661 59.2719 51.101 55.3648C53.766 53.4492 56.7509 52.2271 59.8962 51.354C60.9132 51.072 61.9398 50.8894 62.8369 51.76C63.0398 51.957 63.4377 52.0181 63.7515 52.0337C66.3487 52.1588 68.1288 53.8067 69.8508 55.4043C70.5697 56.0707 69.2287 56.7779 69.3123 57.8845Z" fill="#F8D8D3"/>
<path fill-rule="evenodd" clip-rule="evenodd" d="M8.5293 110.827C9.68592 107.597 9.96118 104.175 11.3482 100.876C11.6094 102.271 9.70066 109.146 8.5293 110.827Z" fill="#F8D8D3"/>
</svg>
