<svg width="77" height="93" viewBox="0 0 77 93" fill="none" xmlns="http://www.w3.org/2000/svg">
<path fill-rule="evenodd" clip-rule="evenodd" d="M68.5863 75.1991C69.5793 76.5648 70.5257 77.8114 71.4015 79.105C71.6453 79.4649 72.1981 80.0203 71.7195 80.3756C71.1929 80.7663 70.6953 80.1565 70.3631 79.7603C68.5705 77.6274 66.8315 75.4484 65.0457 73.3102C59.6531 66.8536 53.8786 60.7506 47.9756 54.7614C40.194 46.8662 31.7882 39.6578 23.5531 32.2588C19.2017 28.3496 14.6525 24.6523 10.6466 20.3665C9.55678 19.2 8.64857 17.9079 7.91044 16.4965C6.66257 14.1104 7.44493 12.1352 9.98956 11.3454C11.3374 10.9268 12.6823 10.3876 14.1518 10.7917C14.9574 11.0133 15.6122 11.2673 15.2822 12.3467C15.0022 13.262 15.5456 13.9193 15.9761 14.7176C17.5205 17.5851 20.1763 19.4871 22.5975 21.1997C25.6892 23.3856 28.6379 25.7828 31.602 28.0921C35.0753 30.7981 38.4352 33.7164 41.7366 36.6758C45.8311 40.3457 49.5454 44.4023 53.6941 48.0155C54.9215 49.0827 56.2971 50.2903 56.7589 52.0564C56.771 52.1025 56.8309 52.1652 56.8727 52.169C58.9868 52.3627 58.6154 55.3742 60.7369 55.5835C60.9601 55.606 61.2993 55.8716 61.3415 56.0747C61.8781 58.656 64.4277 59.8035 65.529 61.9932C65.9253 62.7804 66.4932 63.6021 67.5476 63.7758C67.7376 63.8072 68.0087 63.9886 68.055 64.1536C68.6764 66.3824 71.0347 67.5192 71.5882 69.7857C71.6246 69.9351 71.7317 70.1377 71.856 70.1846C73.9882 70.9975 73.2635 73.8495 75.238 74.8685C75.8723 75.1961 75.0018 77.839 74.1015 77.9622C73.1682 78.0901 73.2864 78.3298 73.5656 78.9216C73.728 79.2673 73.9375 79.6817 73.4453 79.9108C72.9117 80.1583 72.6947 79.7177 72.4279 79.3545C71.4905 78.0779 70.5292 76.8181 69.565 75.5615C69.3739 75.3123 69.1798 75.0032 68.5863 75.1991" fill="#172327"/>
<path fill-rule="evenodd" clip-rule="evenodd" d="M7.35086 44.8319C6.93107 43.1736 7.61111 42.4849 9.83656 42.1385C11.2426 41.9198 12.3887 42.2651 13.499 43.3765C16.3114 46.1915 19.5272 48.5791 22.3062 51.444C23.2534 52.4205 22.9923 52.7029 22.0319 53.6235C20.1268 55.4504 18.5997 54.3516 17.0258 53.338C14.2229 51.5343 11.4163 49.7235 9.13081 47.2428C8.3886 46.4379 7.69004 45.6053 7.35086 44.8319" fill="#172327"/>
</svg>
