<svg width="108" height="137" viewBox="0 0 108 137" fill="none" xmlns="http://www.w3.org/2000/svg">
<path fill-rule="evenodd" clip-rule="evenodd" d="M9.08098 58.7826C8.6169 58.0823 8.15177 57.3829 7.68664 56.6895C7.77568 56.0114 9.18155 55.2301 7.41845 54.6407C7.24665 54.5827 7.47083 53.7425 7.51169 53.2666C8.07006 53.3092 8.76356 53.195 9.16793 53.4218C11.7062 54.8514 11.6277 57.742 9.08098 58.7826" fill="#8B9193"/>
<path fill-rule="evenodd" clip-rule="evenodd" d="M49.6441 53.353L49.556 53.2666C48.8309 54.4981 48.1257 55.7407 47.3214 56.9336C47.2778 56.9995 46.0773 56.7378 45.9912 56.483C45.69 55.6004 48.2535 53.4872 49.6441 53.353" fill="#8B9193"/>
<path fill-rule="evenodd" clip-rule="evenodd" d="M81.896 60.9296C81.0917 57.718 80.4717 54.5776 79.4832 51.5588C78.9118 49.814 77.5212 48.716 75.4965 49.8215C73.4877 50.9186 71.5145 52.0811 69.5525 53.2596C69.4599 53.3139 69.6394 53.795 69.6666 54.0805C69.718 54.6178 69.92 55.216 69.7601 55.6868C68.8174 58.4762 67.3632 61.1627 66.8722 64.0205C65.7285 70.6711 67.1453 75.4459 75.6742 75.0631C75.9286 75.0518 76.196 74.99 76.4354 75.0462C77.9093 75.3916 78.7126 74.7158 79.0315 73.3426C79.9854 69.253 80.9215 65.1587 81.896 60.9296M65.6997 47.837L65.1376 47.2922C62.5911 49.5359 59.7248 51.5082 57.5617 54.0748C51.3511 61.4453 45.9411 69.3353 43.9538 79.0477C42.9316 84.0416 42.7558 89.0794 46.8229 92.7628C50.7517 96.3216 55.638 95.7581 60.3224 94.2062C66.2112 92.2564 70.4626 88.1499 74.0023 83.2394C76.1392 80.273 76.0756 80.2281 72.5032 79.3286C64.1379 77.2215 59.4639 71.8589 59.6397 63.9446C59.7416 59.4113 61.1575 55.0998 63.6011 51.2012C64.3034 50.0807 65.0002 48.9584 65.6997 47.837M8.96107 59.5014C8.39809 62.8431 7.74346 66.1736 7.29831 69.5303C6.82324 73.121 6.42391 76.7313 6.2163 80.3463C6.02833 83.6132 6.04984 86.9015 6.17515 90.1721C6.22472 91.4582 6.95603 92.706 7.10473 94.0024C7.27587 95.4916 6.94201 97.052 7.19918 98.516C7.4947 100.192 8.07919 101.847 8.74692 103.423C12.0762 111.279 15.8253 118.915 23.0066 124.05C33.304 131.411 44.6254 132.738 56.3825 128.483C68.0013 124.277 76.6302 115.928 84.411 106.659C91.6615 98.0209 96.7031 88.2953 99.6854 77.3266C101.444 70.8604 102.004 64.2912 101.616 57.8755C101.281 52.3444 99.1402 46.6972 94.0453 43.1364C89.3993 39.8883 84.1744 40.2029 78.9093 40.8103C78.0096 40.9143 77.038 40.5848 76.1776 40.7879C75.206 41.0172 74.1623 41.4487 73.4497 42.1133C72.795 42.7227 72.6688 43.6325 74.1426 43.6747C80.1671 43.8506 86.4909 50.5687 86.9753 57.3897C87.2231 60.8802 87.9105 64.3062 86.6713 67.8136C86.3244 68.7983 87.1988 70.296 87.7543 71.4408C87.8544 71.6476 89.1281 71.2854 89.9707 71.1693C90.4682 73.4701 89.0299 75.3282 87.4728 76.4196C84.0051 78.8505 82.5154 82.5826 80.399 85.8887C76.7827 91.5387 72.6174 96.5176 66.1711 99.0515C55.6316 103.194 41.9517 99.2836 37.3159 88.0135C35.3305 83.1854 35.396 78.0661 37.2131 73.2436C38.989 68.5287 41.3597 64.0357 43.5387 59.479C43.9567 58.6047 44.5786 57.4449 45.7448 58.9435C45.8411 59.069 46.506 58.9885 46.6584 58.8013C50.3104 54.312 53.9277 49.7946 57.4673 45.1284C54.5664 47.8148 51.6664 50.5022 48.7654 53.1896L48.8487 53.2851C49.1816 52.3359 49.2807 51.1958 49.8811 50.4685C55.9467 43.1149 63.0869 37.2805 72.5743 34.9114C80.0614 33.0411 87.0473 33.9126 93.8685 37.844C99.8182 41.2728 104.047 45.9062 106.336 52.2845C107.477 55.4661 107.686 58.7853 107.818 62.23C107.954 65.8095 108.192 69.3674 107.721 72.9047C106.057 85.3729 101.383 96.614 93.689 106.582C91.222 109.779 89.0261 113.229 86.2627 116.141C83.4777 119.075 80.1793 121.531 77.0352 124.109C75.1003 125.693 73.0597 127.154 71.0201 128.604C59.0441 137.121 46.0263 137.653 32.4913 133.417C18.7721 129.122 9.71858 119.92 4.57505 106.574C0.110468 94.9899 -1.05664 83.0777 0.942785 70.9203C1.87143 65.2684 3.63519 59.7532 5.16235 53.6052C6.34536 55.2761 7.02991 56.244 7.71634 57.2043C8.13156 57.9654 8.54585 58.7329 8.96107 59.5014" fill="#8B9193"/>
<path fill-rule="evenodd" clip-rule="evenodd" d="M28.6329 20.4719C28.4454 20.2774 28.2579 20.0829 28.0696 19.8884C26.6146 21.5521 25.1578 23.2148 23.7019 24.8784L24.1934 25.3236C25.6735 23.7067 27.1527 22.0898 28.6329 20.4719M11.92 50.6101C11.3399 49.65 10.9808 49.0551 10.6217 48.4602C10.4753 49.0656 10.4054 49.7053 10.1591 50.264C9.96794 50.6978 9.5585 51.0296 9.29549 51.3471C6.57399 49.1199 8.1334 47.095 9.20689 44.8936C16.5301 29.8759 27.1251 17.7488 40.4818 8.15488C47.902 2.82545 55.9108 -1.1187 65.4136 0.286587C67.1959 0.550675 68.9325 1.20565 70.6505 1.80247C71.0096 1.92736 71.1886 2.59283 71.4507 3.0085C70.9238 3.14579 70.3856 3.43085 69.8708 3.39272C67.6259 3.23064 65.3894 2.83213 63.1454 2.77874C57.3601 2.64145 52.639 5.53974 48.0829 8.69259C44.2161 11.3687 39.9501 13.7284 36.7968 17.1348C30.8549 23.5511 25.5984 30.629 20.0211 37.4C19.5893 37.9253 18.8478 38.1722 18.291 38.6051C18.0215 38.8148 17.7538 39.1218 17.6475 39.4412C17.2632 40.59 17.1364 41.8723 16.5674 42.9058C15.1656 45.4589 13.5717 47.9034 11.92 50.6101" fill="#8B9193"/>
</svg>
