<svg width="277" height="187" viewBox="0 0 277 187" fill="none" xmlns="http://www.w3.org/2000/svg">
<path fill-rule="evenodd" clip-rule="evenodd" d="M215.753 8.22945C215.785 8.30131 215.817 8.3733 215.849 8.44441L227.37 6.4164C227.352 6.34279 227.335 6.2683 227.316 6.19406L215.753 8.22945ZM119.22 117.749C122.45 113.261 126.096 108.996 127.255 103.401C124.577 108.184 121.899 112.966 119.22 117.749ZM131.646 70.877C131.518 70.1307 131.449 69.3677 131.252 68.6405C128.07 56.9173 117.708 55.5683 109.347 59.5424C106.62 60.8374 104.474 62.806 102.459 64.8958C100.662 66.7575 98.9037 68.7774 97.6531 71.0153C94.5324 76.6017 93.2642 82.7589 93.1029 89.0772C92.8787 97.8673 93.9991 106.419 98.6639 114.126C101.395 118.637 104.902 122.304 109.984 124.293C111.445 124.865 112.257 124.485 113.111 123.328C119.376 114.842 124.955 105.977 128.491 95.9902C131.378 87.8393 133.061 79.5358 131.646 70.877ZM192.333 17.4305C198.209 14.9415 204.084 12.4535 209.959 9.96453C205.287 11.5175 200.674 13.2681 196.12 15.1643C194.785 15.72 193.621 16.6898 192.374 17.4656C189.517 17.9117 187.642 19.944 185.662 21.8029C187.886 20.346 190.11 18.8881 192.333 17.4305ZM108.851 128.576C100.486 125.179 94.6704 119.403 91.11 111.664C84.3035 96.8678 84.1968 81.9027 91.943 67.3073C95.5803 60.4528 101.361 55.5479 108.826 53.0714C115.128 50.9811 121.149 52.13 126.676 55.6344C132.174 59.1192 136.169 63.9728 137.777 70.2484C139.155 75.6263 139.621 81.2529 138.412 86.8111C137.443 91.2574 136.429 95.711 135.055 100.045C134.227 102.655 132.751 105.085 131.427 107.521C128.315 113.243 125.12 118.92 122.094 125.037C123.503 124.353 125 123.805 126.304 122.959C130.512 120.227 133.597 116.398 136.224 112.219C142.552 102.149 146.007 90.9482 149.143 79.6234C151.871 69.7735 154.681 59.9462 159.142 50.6781C167.88 32.5254 181.498 19.5357 200.182 11.7887C211.625 7.04368 223.746 5.36807 235.8 3.29019C240.336 2.50774 244.809 1.34081 249.313 0.35783C249.559 0.303662 249.824 0.333138 250.364 0.313122C249.903 0.922686 249.595 1.33132 249.532 1.41318C250.266 1.82173 251.014 2.23801 251.761 2.65354C251.312 3.41942 251.032 4.41127 250.376 4.89745C249.404 5.61805 248.209 6.14467 247.031 6.4634C243.797 7.33842 240.516 8.0309 237.267 8.85318C233.557 9.79297 229.868 10.8161 226.157 11.7523C225.256 11.98 224.275 11.9036 223.383 12.152C219.111 13.3405 214.791 14.4064 210.615 15.8775C206.865 17.1992 203.342 19.1639 199.602 20.5195C196.752 21.5523 194.231 23.0599 191.746 24.6996C185.767 28.6462 180.155 32.906 175.652 38.6669C169.335 46.7466 164.745 55.7226 161.017 65.1086C158.795 70.7023 157.789 76.7597 156.034 82.549C154.221 88.5271 152.211 94.4491 150.194 100.364C149.177 103.345 148.222 106.397 146.753 109.163C144.879 112.692 142.606 116.028 140.326 119.324C138.846 121.462 137.257 123.61 135.347 125.35C130.916 129.391 125.601 131.318 119.579 130.739C117.741 130.563 116.518 130.946 115.31 132.438C106.374 143.478 95.9067 152.894 84.121 160.799C77.0895 165.517 70.04 170.278 62.623 174.33C53.0562 179.557 42.8518 183.331 31.9541 184.792C30.1921 185.029 28.3582 185.004 26.5942 184.797C25.8606 184.711 25.2242 183.832 24.544 183.315C25.1014 182.785 25.5769 181.988 26.2349 181.783C27.3574 181.432 28.5936 181.438 29.7835 181.323C30.5879 181.245 31.4291 181.345 32.1962 181.144C40.4689 178.972 48.3587 175.768 55.8782 171.732C75.4675 161.214 92.7665 147.803 107.125 130.747C107.653 130.119 108.148 129.462 108.851 128.576Z" fill="#172327"/>
</svg>
